<?xml version="1.0" encoding="UTF-8"?>
<svg width="276px" height="417px" viewBox="0 0 276 417" version="1.1" xmlns="http://www.w3.org/2000/svg" xmlns:xlink="http://www.w3.org/1999/xlink">
    <title>B4A33FB5-0A6E-4848-84DE-1AC815C65EE3</title>
    <defs>
        <path d="M251.180172,112.433587 C251.227906,110.65159 251.256494,108.869854 251.205613,107.094398 C251.186204,106.4356 251.138733,105.777065 251.106736,105.121669 C251.007859,103.123299 250.886688,101.128331 250.663232,99.1459208 C250.634644,98.8944894 250.586648,98.6464593 250.55806,98.3950278 C248.475349,81.1744614 241.665425,64.4949566 230.026265,49.0977258 C151.838168,-46.9223882 -0.187701611,6.9312907 0.00017397259,132.470133 L0.00017397259,333.804951 C0.00017397259,333.804951 0.303536079,412.671739 0.303536079,415.354023 C0.303536079,415.354023 18.65348,391.935057 25.7857372,382.61221 C68.9674448,326.178024 125.012866,276.581673 178.790673,228.779877 C181.221158,226.619555 208.253656,201.179981 214.390587,194.272289 C215.857743,192.620586 217.276903,190.934347 218.693441,189.241568 C219.347288,188.458755 219.997725,187.676204 220.638983,186.880572 C221.780921,185.474283 222.897155,184.045493 223.997654,182.604145 C225.002422,181.28341 225.978603,179.94096 226.94508,178.591707 C227.735834,177.490746 228.536554,176.396326 229.302129,175.273127 C231.059622,172.679799 232.772266,170.048272 234.38,167.327789 C235.936592,164.696262 237.372013,162.052177 238.714852,159.401813 C239.190091,158.466205 239.591893,157.527458 240.038545,156.588973 C240.855263,154.879972 241.67172,153.171494 242.399003,151.456214 C242.893126,150.291937 243.317484,149.123998 243.77043,147.959459 C244.344808,146.479912 244.922071,145.000365 245.432193,143.520819 C245.878844,142.219445 246.26491,140.91467 246.660418,139.613559 C247.06563,138.280266 247.467433,136.946973 247.818354,135.616819 C248.188159,134.204251 248.510231,132.791421 248.819713,131.381731 C249.087494,130.175854 249.339539,128.973117 249.562996,127.766979 C249.840481,126.249495 250.082821,124.731749 250.290017,123.217143 C250.440037,122.151241 250.564355,121.085078 250.676083,120.022577 C250.848134,118.386834 250.995007,116.751353 251.084442,115.119272 C251.135323,114.221864 251.154469,113.327595 251.180172,112.433587 M28.2862499,399.737018 C23.4604231,405.114668 18.7174747,410.555633 13.9745263,416 L145.353463,416 C217.458921,415.522516 275.631902,361.977566 275.631902,295.618772 C275.631902,264.805473 262.812775,236.432183 241.607987,215.107346 C227.426614,230.746327 210.664734,243.878059 193.663923,256.825338 C136.065058,300.697111 76.0388547,346.513619 28.2862499,399.737018" id="path-1"></path>
    </defs>
    <g id="desktop" stroke="none" stroke-width="1" fill="none" fill-rule="evenodd">
        <g id="404-Page" transform="translate(-138.000000, -584.000000)">
            <g id="logo" transform="translate(138.000000, 584.979193)">
                <mask id="mask-2" fill="white">
                    <use xlink:href="#path-1"></use>
                </mask>
                <use id="Mask" fill="#000000" xlink:href="#path-1"></use>
                <g id="color" mask="url(#mask-2)" fill="#BEE9F6">
                    <rect id="swatch" x="0" y="0" width="296.04908" height="460.662577"></rect>
                </g>
            </g>
        </g>
    </g>
</svg>