<?xml version="1.0" encoding="UTF-8"?>
<svg id="services-elearning" width="65px" height="98px" viewBox="0 0 65 98" version="1.1" xmlns="http://www.w3.org/2000/svg" xmlns:xlink="http://www.w3.org/1999/xlink">
    <g id="" stroke="none" stroke-width="1" fill="none" fill-rule="evenodd">
        <g id="" transform="translate(-10.000000, 0.000000)" fill="#172D6A">
            <path d="M66.7792231,50.6737689 C71.7626095,55.6980028 74.7753566,62.3820372 74.7753566,69.6409244 C74.7753566,85.274033 61.103921,97.8879186 44.1587133,98 L44.1587133,98 L13.2845319,98 C14.3983716,96.7177892 15.5132075,95.4360765 16.6474709,94.1688099 C27.8695552,81.6306414 41.9758665,70.8369571 55.5123063,60.5020591 C59.5078824,57.4519516 63.4471687,54.3580079 66.7792231,50.6737689 Z M10.9574239,23.0737581 C16.7467999,-0.500190438 47.4705432,-8.85398804 64.0575887,11.5657419 L64.0575887,11.5657419 L64.3804325,12.0024165 C66.9195956,15.5072447 68.4129808,19.2842922 68.883065,23.1788656 L68.883065,23.1788656 L68.9074738,23.3562032 C68.9597784,23.8234579 68.9886705,24.2927052 69.0115849,24.763447 C69.019057,24.9183683 69.0305142,25.0727915 69.0349975,25.228211 C69.0469528,25.64615 69.040477,26.0660815 69.0290198,26.486013 C69.0230421,26.6967259 69.0180607,26.9074389 69.0061054,27.11865 C68.9851835,27.5032136 68.9513101,27.8882754 68.9109608,28.2738353 C68.8845594,28.5243994 68.854671,28.7754616 68.8198013,29.0265239 C68.7709836,29.3836898 68.7141957,29.7408558 68.6489395,30.0985199 C68.5966348,30.3824593 68.5368581,30.6659006 68.4745907,30.9498401 C68.4013642,31.282099 68.325647,31.6148562 68.2384726,31.9471151 C68.1562796,32.2614411 68.0616331,32.5752689 67.9664885,32.8890967 C67.8738346,33.1959506 67.7826751,33.5028045 67.6780658,33.8096583 C67.5585123,34.1583559 67.4225203,34.5070535 67.2875245,34.8552529 C67.1814208,35.1302259 67.0812948,35.4047007 66.9657264,35.6791755 C66.7948646,36.0831665 66.6025828,36.4856631 66.4107992,36.8881598 C66.3056918,37.1093337 66.2110453,37.3305075 66.099462,37.5511833 C65.7841398,38.175352 65.4464013,38.7980262 65.080767,39.4182097 C64.7026792,40.058817 64.3006807,40.6790005 63.8877231,41.2897194 C63.7078948,41.5542314 63.5191,41.8122677 63.333294,42.0717983 C63.1061424,42.3901093 62.8769983,42.7059297 62.6413784,43.0167687 C62.3823459,43.3564998 62.1198264,43.6927439 61.8513293,44.0245047 C61.7008912,44.211307 61.5474643,44.3961167 61.3940373,44.5804283 C61.0612802,44.9789398 60.7275268,45.376455 60.3833125,45.7655019 C58.941199,47.3929233 52.5884273,53.3855401 52.0170614,53.8946386 C39.3787669,65.1560758 26.2074633,76.8394371 16.0598657,90.1342794 C14.3831285,92.3310741 10.0712339,97.9999004 10.0712339,97.9999004 C10.0712339,97.4119867 10.0094239,81.1178392 10.0009568,78.8885222 L10,56.4784876 C10.1061037,56.4311644 10.2141999,56.38683 10.307352,56.3101165 L10.307352,56.3101165 L13.3838609,54.1128237 C14.5191206,54.7494458 15.735577,55.257548 17.0147989,55.618699 L17.0147989,55.618699 L17.6354806,59.345778 C17.7017331,60.0112922 18.2631362,60.5308516 18.9455872,60.5308516 L18.9455872,60.5308516 L24.2134113,60.5308516 C24.8963604,60.5303534 25.4577635,60.0112922 25.524016,59.345778 L25.524016,59.345778 L26.1451958,55.618699 C27.4234215,55.257548 28.6398779,54.7489477 29.7751376,54.1128237 L29.7751376,54.1128237 L32.8521446,56.3101165 C33.3697114,56.7340331 34.1343554,56.7046429 34.6165543,56.2219458 L34.6165543,56.2219458 L38.3411426,52.4968595 C38.8243378,52.0141624 38.853728,51.2495184 38.4303095,50.7324497 L38.4303095,50.7324497 L36.2325185,47.6559409 C36.8691407,46.5206812 37.377741,45.3042248 37.738892,44.0250028 L37.738892,44.0250028 L41.465971,43.4043212 C42.1309871,43.3380686 42.6510446,42.7766655 42.6510446,42.0942146 L42.6510446,42.0942146 L42.6510446,36.8263905 C42.6510446,36.1434414 42.1309871,35.5820383 41.465971,35.5157857 L41.465971,35.5157857 L37.7383939,34.8946059 C37.377741,33.6158821 36.8691407,32.3994257 36.2325185,31.2646642 L36.2325185,31.2646642 L38.4303095,28.1876571 C38.853728,27.6700903 38.8248359,26.9054464 38.3416407,26.4227493 L38.3416407,26.4227493 L34.6170525,22.6986592 C34.1343554,22.2149658 33.3697114,22.1860738 32.8521446,22.6094922 L32.8521446,22.6094922 L29.7756357,24.8072832 C28.640376,24.1706611 27.4239197,23.6620608 26.145694,23.3009097 L26.145694,23.3009097 L25.524016,19.5738308 C25.4577635,18.9088147 24.8963604,18.3887572 24.2139094,18.3887572 L24.2139094,18.3887572 L18.9460853,18.3887572 C18.2631362,18.3887572 17.7017331,18.9088147 17.6354806,19.5738308 L17.6354806,19.5738308 L17.0147989,23.3009097 C15.7360751,23.6620608 14.5196187,24.1711592 13.384359,24.8077814 L13.384359,24.8077814 Z" id=""></path>
        </g>
    </g>
</svg>