<?xml version="1.0" encoding="utf-8"?>
<!-- Generator: Adobe Illustrator 26.5.0, SVG Export Plug-In . SVG Version: 6.00 Build 0)  -->
<svg version="1.1" id="Layer_1" xmlns="http://www.w3.org/2000/svg" xmlns:xlink="http://www.w3.org/1999/xlink" x="0px" y="0px" height="51"
	 viewBox="0 0 446.7 160" style="enable-background:new 0 0 446.7 160;" xml:space="preserve">
<style type="text/css">
	.st0{fill:#FFFFFF;}
	.st1{enable-background:new    ;}
</style>
<g>
	<g transform="scale(1.3333)">
		<g>
			<g>
				<path class="st0" d="M308,1c14.4,0,26,11.6,26,26v66c0,14.4-11.6,26-26,26H27c-14.4,0-26-11.6-26-26V27C1,12.6,12.6,1,27,1H308z
					 M308,0H27C12.1,0,0,12.1,0,27v66c0,14.9,12.1,27,27,27h281c14.9,0,27-12.1,27-27V27C335,12.1,322.9,0,308,0"/>
				<g>
					<g>
						<g class="st1">
							<path class="st0" d="M42.8,20.7c6.1,0,10.4,1.9,14.5,5.6c0.5,0.5,0.5,1.2,0.1,1.7l-3.7,3.8c-0.4,0.5-1,0.5-1.5,0
								c-2.5-2.2-5.9-3.5-9.2-3.5c-7.7,0-13.4,6.4-13.4,14c0,7.5,5.8,13.9,13.4,13.9c3.6,0,6.7-1.4,9.2-3.4c0.5-0.4,1.1-0.4,1.5,0
								l3.7,3.8c0.5,0.4,0.4,1.2-0.1,1.6c-4.1,4-9.2,5.8-14.6,5.8c-12,0-21.7-9.5-21.7-21.5C21.2,30.4,30.8,20.7,42.8,20.7z"/>
						</g>
						<g class="st1">
							<path class="st0" d="M68.5,21.6c0.1-0.5,0.4-0.9,1.1-0.9h1c0.5,0,0.8,0.2,1,0.6l13.2,28.3c0.1,0,0.1,0,0.2,0l13.2-28.3
								c0.2-0.4,0.5-0.6,1-0.6h1c0.7,0,1,0.4,1.1,0.9l7.1,40.3c0.2,0.8-0.3,1.4-1.1,1.4h-5.5c-0.5,0-1-0.5-1.1-0.9L97,39.7
								c-0.1,0-0.2,0-0.2,0L86.3,63.3c-0.1,0.4-0.5,0.7-1,0.7h-1.1c-0.5,0-0.8-0.3-1-0.7L72.6,39.7c0,0-0.1,0-0.2,0l-3.5,22.7
								c-0.1,0.4-0.5,0.9-1.1,0.9h-5.4c-0.8,0-1.3-0.5-1.1-1.4L68.5,21.6z"/>
						</g>
						<g class="st1">
							<path class="st0" d="M120.6,21.6c0.1-0.5,0.4-0.9,1.1-0.9h1c0.5,0,0.8,0.2,1,0.6l13.2,28.3c0.1,0,0.1,0,0.2,0l13.2-28.3
								c0.2-0.4,0.5-0.6,1-0.6h1c0.7,0,1,0.4,1.1,0.9l7.1,40.3c0.2,0.8-0.3,1.4-1.1,1.4h-5.5c-0.5,0-1-0.5-1.1-0.9l-3.5-22.7
								c-0.1,0-0.2,0-0.2,0l-10.5,23.6c-0.1,0.4-0.5,0.7-1,0.7h-1.1c-0.5,0-0.8-0.3-1-0.7l-10.6-23.6c0,0-0.1,0-0.2,0l-3.5,22.7
								c-0.1,0.4-0.5,0.9-1.1,0.9h-5.4c-0.8,0-1.3-0.5-1.1-1.4L120.6,21.6z"/>
						</g>
						<g class="st1">
							<path class="st0" d="M168.4,22.5c0-0.6,0.5-1.1,1.1-1.1h5.6c0.6,0,1.1,0.5,1.1,1.1v39.7c0,0.6-0.5,1.1-1.1,1.1h-5.6
								c-0.6,0-1.1-0.5-1.1-1.1V22.5z"/>
						</g>
					</g>
				</g>
				<path class="st0" d="M184,55.4c2.2,0,4,1.8,4,4s-1.8,4-4,4s-4-1.8-4-4S181.7,55.4,184,55.4 M184,62.7c1.8,0,3.3-1.5,3.3-3.3
					c0-1.8-1.5-3.3-3.3-3.3c-1.8,0-3.3,1.5-3.3,3.3v0C180.7,61.2,182.1,62.6,184,62.7 M182.6,57.5c0-0.1,0.1-0.2,0.2-0.2
					c0,0,0,0,0.1,0h1.6c0.7-0.1,1.3,0.4,1.4,1.1c0,0,0,0.1,0,0.1v0.1c0,0.6-0.3,1.1-0.9,1.2l0.6,1.3c0.1,0.1,0,0.2-0.1,0.3H185
					c-0.1,0-0.1-0.1-0.2-0.2l-0.6-1.4h-0.8v1.3c0,0.1-0.1,0.2-0.2,0.2c0,0,0,0,0,0h-0.3c-0.1,0-0.2-0.1-0.2-0.2c0,0,0,0,0,0
					L182.6,57.5z M184.3,59.1c0.3,0,0.6-0.2,0.6-0.5c0,0,0,0,0-0.1v-0.1c0-0.3-0.2-0.6-0.5-0.6c0,0,0,0-0.1,0h-1.1v1.3L184.3,59.1z"
					/>
			</g>
		</g>
		<g>
			<g>
				<path class="st0" d="M251.8,19.8c0-0.2,0.2-0.4,0.5-0.4h0.3c0.3,0,0.5,0.2,0.5,0.4v22.1c0,0.2-0.2,0.4-0.5,0.4h-0.2
					c-0.3,0-0.5-0.2-0.5-0.4L251.8,19.8z"/>
			</g>
		</g>
		<g>
			<g>
				<g>
					<g>
						<g class="st1">
							<path class="st0" d="M195,62.7l7.2-15.5c0.1-0.1,0.2-0.3,0.4-0.3h0.2c0.2,0,0.3,0.1,0.4,0.3l7.1,15.5c0.1,0.3,0,0.6-0.4,0.6
								h-2c-0.3,0-0.5-0.1-0.7-0.5l-1.1-2.5h-6.9l-1.1,2.5c-0.1,0.2-0.3,0.5-0.7,0.5h-2C195.1,63.3,194.9,63,195,62.7z M204.9,57.8
								l-2.3-5.1h-0.1l-2.3,5.1H204.9z"/>
						</g>
						<g class="st1">
							<path class="st0" d="M212.1,47.7c0-0.2,0.2-0.4,0.4-0.4h5.4c2.8,0,5.2,2.3,5.2,5.1c0,2.9-2.3,5.2-5.1,5.2h-2.9v5.4
								c0,0.2-0.2,0.4-0.4,0.4h-2.1c-0.3,0-0.4-0.2-0.4-0.4V47.7z M217.8,54.7c1.3,0,2.4-1,2.4-2.4c0-1.3-1.1-2.2-2.4-2.2h-2.7v4.6
								H217.8z"/>
						</g>
						<g class="st1">
							<path class="st0" d="M225.5,47.7c0-0.2,0.2-0.4,0.4-0.4h5.4c2.8,0,5.2,2.3,5.2,5.1c0,2.9-2.3,5.2-5.1,5.2h-2.9v5.4
								c0,0.2-0.2,0.4-0.4,0.4H226c-0.3,0-0.4-0.2-0.4-0.4V47.7z M231.2,54.7c1.3,0,2.4-1,2.4-2.4c0-1.3-1.1-2.2-2.4-2.2h-2.7v4.6
								H231.2z"/>
						</g>
						<g class="st1">
							<path class="st0" d="M239,47.7c0-0.2,0.2-0.4,0.4-0.4h6.6c2.8,0,5,2.2,5,4.9c0,2.1-1.4,3.8-3.4,4.6l3.2,5.8
								c0.2,0.3,0,0.7-0.4,0.7h-2.4c-0.2,0-0.3-0.1-0.4-0.2l-3.1-6.1H242v5.9c0,0.2-0.2,0.4-0.4,0.4h-2.1c-0.3,0-0.4-0.2-0.4-0.4
								V47.7z M245.7,54.6c1.2,0,2.3-1.1,2.3-2.3c0-1.2-1.1-2.2-2.3-2.2H242v4.6H245.7z"/>
						</g>
						<g class="st1">
							<path class="st0" d="M252,62.7l7.2-15.5c0.1-0.1,0.2-0.3,0.4-0.3h0.2c0.2,0,0.3,0.1,0.4,0.3l7.1,15.5c0.1,0.3,0,0.6-0.4,0.6
								h-2c-0.3,0-0.5-0.1-0.7-0.5l-1.1-2.5h-6.9l-1.1,2.5c-0.1,0.2-0.3,0.5-0.7,0.5h-2C252,63.3,251.8,63,252,62.7z M261.9,57.8
								l-2.3-5.1h-0.1l-2.3,5.1H261.9z"/>
						</g>
						<g class="st1">
							<path class="st0" d="M269.1,47.7c0-0.2,0.2-0.4,0.4-0.4h2.1c0.2,0,0.4,0.2,0.4,0.4v15.2c0,0.2-0.2,0.4-0.4,0.4h-2.1
								c-0.2,0-0.4-0.2-0.4-0.4V47.7z"/>
						</g>
						<g class="st1">
							<path class="st0" d="M275.2,61.1l0.8-1.4c0.2-0.3,0.6-0.3,0.8-0.2c0.1,0.1,2,1.4,3.5,1.4c1.2,0,2.1-0.8,2.1-1.8
								c0-1.2-1-2-2.9-2.8c-2.2-0.9-4.3-2.3-4.3-5c0-2,1.5-4.4,5.2-4.4c2.3,0,4.1,1.2,4.6,1.5c0.2,0.1,0.3,0.5,0.1,0.8l-0.9,1.3
								c-0.2,0.3-0.5,0.5-0.8,0.3c-0.2-0.1-1.9-1.3-3.2-1.3c-1.3,0-2,0.9-2,1.6c0,1.1,0.9,1.8,2.7,2.6c2.2,0.9,4.8,2.2,4.8,5.2
								c0,2.4-2,4.6-5.3,4.6c-2.9,0-4.6-1.4-5.1-1.8C275.1,61.5,275,61.4,275.2,61.1z"/>
						</g>
						<g class="st1">
							<path class="st0" d="M288.4,47.7c0-0.2,0.2-0.4,0.4-0.4h9.4c0.3,0,0.4,0.2,0.4,0.4v1.9c0,0.2-0.2,0.4-0.4,0.4h-6.8v3.8h5.7
								c0.2,0,0.4,0.2,0.4,0.4v1.9c0,0.3-0.2,0.4-0.4,0.4h-5.7v4h6.8c0.3,0,0.4,0.2,0.4,0.4v1.9c0,0.2-0.2,0.4-0.4,0.4h-9.4
								c-0.3,0-0.4-0.2-0.4-0.4V47.7z"/>
						</g>
						<g class="st1">
							<path class="st0" d="M301.7,47.7c0-0.2,0.2-0.4,0.4-0.4h5.5c4.4,0,8.1,3.6,8.1,8c0,4.5-3.6,8.1-8.1,8.1h-5.5
								c-0.2,0-0.4-0.2-0.4-0.4V47.7z M307.3,60.5c3,0,5.2-2.3,5.2-5.3c0-3-2.2-5.2-5.2-5.2h-2.6v10.5H307.3z"/>
						</g>
					</g>
				</g>
			</g>
		</g>
		<g class="st1">
			<path class="st0" d="M168.5,83.8c0-0.2,0.2-0.3,0.3-0.3h0.2c0.2,0,0.3,0.1,0.3,0.3v17.4c0,0.2-0.2,0.3-0.3,0.3h-0.2
				c-0.2,0-0.3-0.1-0.3-0.3V83.8z"/>
		</g>
		<g>
			<g>
				<g>
					<g>
						<g class="st1">
							<path class="st0" d="M203,24.8c0-0.2,0.1-0.3,0.3-0.3h4.1c3.5,0,6.3,2.8,6.3,6.3c0,3.5-2.8,6.3-6.3,6.3h-4.1
								c-0.2,0-0.3-0.2-0.3-0.3V24.8z M207.2,35.3c2.6,0,4.6-1.9,4.6-4.6c0-2.6-1.9-4.6-4.6-4.6h-2.4v9.2H207.2z"/>
						</g>
						<g class="st1">
							<path class="st0" d="M216.4,24.8c0-0.2,0.1-0.3,0.3-0.3h7.2c0.2,0,0.3,0.2,0.3,0.3v1c0,0.2-0.1,0.3-0.3,0.3h-5.7v3.7h4.8
								c0.2,0,0.3,0.2,0.3,0.3v1c0,0.2-0.2,0.3-0.3,0.3h-4.8v3.9h5.7c0.2,0,0.3,0.2,0.3,0.3v1c0,0.2-0.1,0.3-0.3,0.3h-7.2
								c-0.2,0-0.3-0.2-0.3-0.3V24.8z"/>
						</g>
						<g class="st1">
							<path class="st0" d="M225.3,24.9c-0.1-0.2,0-0.5,0.3-0.5h1.3c0.1,0,0.3,0.1,0.3,0.2l4,8.9h0.1l4-8.9c0-0.1,0.1-0.2,0.3-0.2
								h1.3c0.3,0,0.4,0.2,0.3,0.5L231.6,37c-0.1,0.1-0.2,0.2-0.3,0.2h-0.2c-0.1,0-0.3-0.1-0.3-0.2L225.3,24.9z"/>
						</g>
					</g>
				</g>
			</g>
		</g>
		<g>
			<g>
				<g>
					<g>
						<g class="st1">
							<path class="st0" d="M270.1,24.5c0-0.1,0.2-0.3,0.3-0.3h0.3c0.1,0,0.3,0.1,0.3,0.2l3.8,9.2h0.1l3.7-9.2
								c0-0.1,0.2-0.2,0.3-0.2h0.3c0.1,0,0.3,0.1,0.3,0.3l2.2,12.1c0.1,0.3-0.1,0.4-0.3,0.4h-1.2c-0.2,0-0.3-0.1-0.3-0.3l-1.3-8
								c0,0-0.1,0-0.1,0l-3.2,8.3c0,0.1-0.1,0.2-0.3,0.2h-0.3c-0.1,0-0.3-0.1-0.3-0.2l-3.3-8.3c0,0-0.1,0-0.1,0l-1.3,8
								c0,0.1-0.2,0.3-0.3,0.3h-1.2c-0.3,0-0.4-0.2-0.3-0.4L270.1,24.5z"/>
						</g>
						<g class="st1">
							<path class="st0" d="M284.4,24.8c0-0.2,0.1-0.3,0.3-0.3h1.2c0.2,0,0.3,0.2,0.3,0.3v10.6h4.9c0.2,0,0.3,0.2,0.3,0.3v1
								c0,0.2-0.1,0.3-0.3,0.3h-6.4c-0.2,0-0.3-0.2-0.3-0.3V24.8z"/>
						</g>
						<g class="st1">
							<path class="st0" d="M296.4,35.2l0.7-0.6c0.2-0.1,0.3-0.1,0.5,0c0.1,0.1,1.1,1.1,2.4,1.1c1.2,0,2.3-0.7,2.3-1.9
								c0-1.1-0.9-2.1-2.8-2.1h-1c-0.2,0-0.3-0.1-0.3-0.4v-0.8c0-0.3,0.1-0.4,0.4-0.4h1c1.7,0,2.5-0.9,2.5-1.9c0-1.2-1-2-2.1-2
								c-1.1,0-1.7,0.6-2.1,1c-0.1,0.1-0.3,0.2-0.5,0l-0.7-0.6c-0.1-0.1-0.1-0.3,0-0.5c0,0,1.4-1.6,3.3-1.6c2.1,0,3.8,1.3,3.8,3.3
								c0,1.4-1,2.4-1.9,2.8v0.1c0.8,0.4,2.2,1.4,2.2,3c0,2-1.6,3.4-4.1,3.4c-2.2,0-3.3-1.1-3.7-1.6
								C296.2,35.5,296.2,35.3,296.4,35.2z"/>
						</g>
					</g>
				</g>
			</g>
		</g>
		<g>
			<g>
				<g>
					<g>
						<g class="st1">
							<path class="st0" d="M26.3,97.4l5.2-11.4c0.1-0.1,0.2-0.2,0.3-0.2H32c0.1,0,0.2,0.1,0.3,0.2l5.2,11.4c0.1,0.2,0,0.4-0.3,0.4
								h-1.1c-0.2,0-0.3-0.1-0.4-0.3l-1.1-2.3h-5.6c-0.3,0.8-0.7,1.5-1,2.3c-0.1,0.1-0.2,0.3-0.4,0.3h-1.1
								C26.3,97.8,26.2,97.6,26.3,97.4z M34,93.8l-2.1-4.7h-0.1l-2.1,4.7H34z"/>
						</g>
						<g class="st1">
							<path class="st0" d="M40.2,102.6c0,0.2-0.1,0.3-0.4,0.3h-1c-0.2,0-0.3-0.2-0.3-0.3V91.3c0-0.2,0.2-0.3,0.3-0.3h0.5
								c0.1,0,0.2,0.1,0.3,0.2l0.2,0.4c0.1-0.1,0.8-0.8,2.1-0.8c1.9,0,3.2,1.6,3.2,3.6c0,2-1.5,3.6-3.3,3.6c-0.9,0-1.5-0.4-1.7-0.5
								V102.6z M41.7,96.5c1.1,0,1.9-0.9,1.9-2.1c0-1.1-0.7-2.1-1.9-2.1c-1,0-1.5,0.8-1.6,1V96C40.2,96,40.8,96.5,41.7,96.5z"/>
						</g>
						<g class="st1">
							<path class="st0" d="M48.4,102.6c0,0.2-0.1,0.3-0.4,0.3h-1c-0.2,0-0.3-0.2-0.3-0.3V91.3c0-0.2,0.2-0.3,0.3-0.3h0.5
								c0.1,0,0.2,0.1,0.3,0.2l0.2,0.4c0.1-0.1,0.8-0.8,2.1-0.8c1.9,0,3.2,1.6,3.2,3.6c0,2-1.5,3.6-3.3,3.6c-0.9,0-1.5-0.4-1.7-0.5
								V102.6z M49.9,96.5c1.1,0,1.9-0.9,1.9-2.1c0-1.1-0.7-2.1-1.9-2.1c-1,0-1.5,0.8-1.6,1V96C48.4,96,49,96.5,49.9,96.5z"/>
						</g>
						<g class="st1">
							<path class="st0" d="M55,91.3c0-0.2,0.2-0.3,0.3-0.3h0.5c0.1,0,0.3,0.1,0.3,0.2l0.2,0.6c0.1-0.2,0.7-1,2-1
								c0.6,0,1.4,0.2,1.2,0.6l-0.4,0.8c-0.1,0.2-0.3,0.2-0.4,0.2c-0.1-0.1-0.4-0.1-0.6-0.1c-1,0-1.5,0.7-1.5,0.8v4.3
								c0,0.3-0.2,0.3-0.5,0.3h-0.8c-0.2,0-0.3-0.2-0.3-0.3V91.3z"/>
						</g>
						<g class="st1">
							<path class="st0" d="M62.9,93.5c0.7,0,1.3,0.2,1.3,0.2c0-1.1-0.2-1.5-1.1-1.5c-0.8,0-1.5,0.2-1.9,0.3
								c-0.2,0.1-0.3-0.1-0.4-0.3l-0.1-0.6c-0.1-0.2,0.1-0.3,0.2-0.4c0.1-0.1,1.1-0.4,2.3-0.4c2.2,0,2.4,1.3,2.4,3v3.6
								c0,0.2-0.2,0.3-0.3,0.3h-0.5c-0.2,0-0.2-0.1-0.3-0.2l-0.2-0.5c-0.4,0.4-1,0.9-2.1,0.9c-1.3,0-2.2-0.9-2.2-2.3
								C60.2,94.5,61.2,93.5,62.9,93.5z M62.7,96.8c0.7,0,1.3-0.5,1.5-0.8v-1.1c-0.1-0.1-0.6-0.3-1.2-0.3c-0.8,0-1.4,0.4-1.4,1.1
								C61.7,96.3,62.1,96.8,62.7,96.8z"/>
						</g>
						<g class="st1">
							<path class="st0" d="M67.6,87.3c0-0.6,0.4-1,1-1c0.6,0,1,0.4,1,1c0,0.5-0.4,1-1,1C68.1,88.2,67.6,87.8,67.6,87.3z M67.8,91.3
								c0-0.2,0.2-0.3,0.3-0.3h1c0.2,0,0.3,0.2,0.3,0.3v6.2c0,0.2-0.2,0.3-0.3,0.3h-1c-0.2,0-0.3-0.2-0.3-0.3V91.3z"/>
						</g>
						<g class="st1">
							<path class="st0" d="M71,96.9l0.4-0.7c0.1-0.1,0.3-0.2,0.4-0.1c0,0,0.7,0.4,1.6,0.4c0.5,0,0.8-0.2,0.8-0.6
								c0-0.5-0.4-0.7-1.3-1.1c-1.1-0.5-1.9-1.1-1.9-2.2c0-0.8,0.7-1.9,2.3-1.9c1,0,1.7,0.3,2,0.5c0.2,0.1,0.2,0.3,0.1,0.5l-0.3,0.6
								c-0.1,0.2-0.3,0.2-0.4,0.1c0,0-0.7-0.4-1.4-0.4c-0.6,0-0.8,0.3-0.8,0.5c0,0.4,0.4,0.6,1.1,0.9c1.2,0.5,2.3,1.1,2.3,2.3
								c0,1.1-1,2-2.5,2c-1.1,0-1.9-0.4-2.2-0.7C71,97.2,70.9,97.1,71,96.9z"/>
						</g>
						<g class="st1">
							<path class="st0" d="M79.7,93.5c0.7,0,1.3,0.2,1.3,0.2c0-1.1-0.2-1.5-1.1-1.5c-0.8,0-1.5,0.2-1.9,0.3
								c-0.2,0.1-0.3-0.1-0.4-0.3l-0.1-0.6c-0.1-0.2,0.1-0.3,0.2-0.4c0.1-0.1,1.1-0.4,2.3-0.4c2.2,0,2.4,1.3,2.4,3v3.6
								c0,0.2-0.2,0.3-0.3,0.3h-0.5c-0.2,0-0.2-0.1-0.3-0.2l-0.2-0.5c-0.4,0.4-1,0.9-2.1,0.9c-1.3,0-2.2-0.9-2.2-2.3
								C77,94.5,78,93.5,79.7,93.5z M79.5,96.8c0.7,0,1.3-0.5,1.5-0.8v-1.1c-0.1-0.1-0.6-0.3-1.2-0.3c-0.8,0-1.4,0.4-1.4,1.1
								C78.4,96.3,78.9,96.8,79.5,96.8z"/>
						</g>
						<g class="st1">
							<path class="st0" d="M84.6,86.2c0-0.2,0.2-0.3,0.3-0.3h1c0.2,0,0.3,0.2,0.3,0.3v11.3c0,0.2-0.2,0.3-0.3,0.3h-1
								c-0.2,0-0.3-0.2-0.3-0.3V86.2z"/>
						</g>
						<g class="st1">
							<path class="st0" d="M93.1,94.6h-1.2c-0.2,0-0.3-0.1-0.3-0.3V94c0-0.2,0.1-0.3,0.3-0.3h1.3l0.4-2.8h-1.2
								c-0.2,0-0.3-0.1-0.3-0.3v-0.2c0-0.2,0.2-0.3,0.3-0.3h1.3l0.5-3.9c0-0.1,0.2-0.3,0.3-0.3h0.2c0.2,0,0.3,0.2,0.3,0.4l-0.5,3.8
								h2.6l0.5-3.9c0-0.1,0.2-0.3,0.3-0.3h0.2c0.2,0,0.4,0.2,0.3,0.4L98,90.1h1.1c0.2,0,0.3,0.1,0.3,0.3v0.2c0,0.2-0.1,0.3-0.3,0.3
								h-1.3l-0.4,2.8h1.2c0.2,0,0.3,0.1,0.3,0.3v0.2c0,0.2-0.1,0.3-0.3,0.3h-1.3l-0.4,3c0,0.2-0.2,0.3-0.3,0.3h-0.2
								c-0.2,0-0.3-0.2-0.3-0.4l0.4-2.9h-2.7l-0.4,3c0,0.2-0.2,0.3-0.3,0.3H93c-0.2,0-0.4-0.2-0.3-0.4L93.1,94.6z M96.7,93.7
								l0.4-2.8h-2.6L94,93.7H96.7z"/>
						</g>
						<g class="st1">
							<path class="st0" d="M110.3,85.9c0.2-0.1,0.4,0,0.4,0.2l0.3,0.7c0.1,0.2,0,0.4-0.3,0.5c-0.8,0.3-3.5,1.7-4,3.8
								c0.1-0.1,1.1-0.6,2.3-0.6c1.8,0,3.6,1.3,3.6,3.7c0,2.1-1.7,3.9-3.8,3.9c-2.7,0-4-2.1-4-4.8C104.7,88.5,108.8,86.5,110.3,85.9
								z M110.9,94.1c0-1.3-1-2.3-2.3-2.3c-1.3,0-2.2,1-2.3,1.3c-0.1,1.4,0.5,3.4,2.3,3.4C109.9,96.5,110.9,95.4,110.9,94.1z"/>
						</g>
						<g class="st1">
							<path class="st0" d="M114.3,92c0-3.7,1.5-5.9,4.2-5.9c2.7,0,4.2,2.2,4.2,5.9s-1.5,5.9-4.2,5.9C115.8,98,114.3,95.8,114.3,92z
								 M121,92c0-2.8-0.9-4.4-2.5-4.4c-1.6,0-2.5,1.6-2.5,4.4c0,2.8,0.9,4.4,2.5,4.4C120.1,96.4,121,94.9,121,92z"/>
						</g>
						<g class="st1">
							<path class="st0" d="M125.1,97.3l4.6-9.6h-5c-0.2,0-0.3-0.2-0.3-0.3v-0.8c0-0.2,0.2-0.3,0.3-0.3h7c0.2,0,0.3,0.2,0.3,0.3v0.1
								l-5,10.7c-0.2,0.3-0.2,0.5-0.7,0.5h-0.8c-0.2,0-0.4-0.2-0.4-0.3V97.3z"/>
						</g>
						<g class="st1">
							<path class="st0" d="M132.6,96.1l0.7-0.6c0.2-0.1,0.3-0.1,0.5,0c0.1,0.1,1.1,1.1,2.3,1.1c1.1,0,2.1-0.7,2.1-1.8
								c0-1-0.9-2-2.7-2h-1c-0.2,0-0.3-0.1-0.3-0.4v-0.7c0-0.3,0.1-0.4,0.3-0.4h1c1.6,0,2.4-0.8,2.4-1.8c0-1.1-0.9-1.9-1.9-1.9
								c-1,0-1.6,0.6-2,1c-0.1,0.1-0.3,0.2-0.4,0l-0.6-0.6c-0.1-0.1-0.1-0.3,0-0.4c0,0,1.3-1.5,3.1-1.5c2,0,3.6,1.2,3.6,3.1
								c0,1.3-1,2.3-1.8,2.7v0.1c0.8,0.3,2.1,1.4,2.1,2.8c0,1.9-1.5,3.2-3.8,3.2c-2.1,0-3.1-1.1-3.5-1.5
								C132.5,96.3,132.5,96.2,132.6,96.1z"/>
						</g>
						<g class="st1">
							<path class="st0" d="M143.3,96.7c0.8-0.3,3.5-1.7,4.1-3.7c-0.2,0.1-1.1,0.6-2.3,0.6c-1.8,0-3.6-1.3-3.6-3.7
								c0-2.1,1.7-3.9,3.8-3.9c2.7,0,4,2.1,4,4.8c0,4.7-4.1,6.7-5.6,7.3c-0.2,0.1-0.4,0-0.4-0.2l-0.3-0.7
								C142.9,97,143,96.8,143.3,96.7z M147.7,90.9c0.2-1.4-0.5-3.4-2.3-3.4c-1.2,0-2.2,1.1-2.2,2.3c0,1.3,1,2.3,2.3,2.3
								C146.7,92.2,147.6,91.2,147.7,90.9z"/>
						</g>
					</g>
				</g>
			</g>
		</g>
		<g>
			<g>
				<g>
					<g>
						<g class="st1">
							<path class="st0" d="M180.8,86.2c0-0.2,0.1-0.3,0.3-0.3h6.8c0.2,0,0.3,0.2,0.3,0.3v1c0,0.2-0.1,0.3-0.3,0.3h-5.4V91h4.5
								c0.2,0,0.3,0.2,0.3,0.3v1c0,0.2-0.2,0.3-0.3,0.3h-4.5v3.7h5.4c0.2,0,0.3,0.2,0.3,0.3v0.9c0,0.2-0.1,0.3-0.3,0.3h-6.8
								c-0.2,0-0.3-0.2-0.3-0.3V86.2z"/>
						</g>
						<g class="st1">
							<path class="st0" d="M191.9,94.3l-2.1-2.9c-0.2-0.2-0.1-0.5,0.2-0.5h1.1c0.2,0,0.3,0.1,0.4,0.2l1.4,2h0l1.4-2
								c0.1-0.1,0.2-0.2,0.4-0.2h1.1c0.3,0,0.4,0.2,0.2,0.4l-2.1,2.9l2.2,3c0.2,0.2,0.1,0.4-0.2,0.4h-1.1c-0.1,0-0.3-0.1-0.4-0.2
								l-1.5-2.1h0l-1.5,2.2c-0.1,0.1-0.1,0.1-0.3,0.1h-1.1c-0.3,0-0.4-0.2-0.2-0.4L191.9,94.3z"/>
						</g>
						<g class="st1">
							<path class="st0" d="M199,102.6c0,0.2-0.1,0.3-0.4,0.3h-1c-0.2,0-0.3-0.2-0.3-0.3V91.3c0-0.2,0.2-0.3,0.3-0.3h0.5
								c0.1,0,0.2,0.1,0.3,0.2l0.2,0.4c0.1-0.1,0.8-0.8,2.1-0.8c1.9,0,3.2,1.6,3.2,3.6c0,2-1.5,3.6-3.3,3.6c-0.9,0-1.5-0.4-1.7-0.5
								V102.6z M200.5,96.5c1.1,0,1.9-0.9,1.9-2.1c0-1.1-0.7-2.1-1.9-2.1c-1,0-1.5,0.8-1.6,1V96C199,96,199.6,96.5,200.5,96.5z"/>
						</g>
						<g class="st1">
							<path class="st0" d="M206.4,95.6c0.7,0,1.2,0.5,1.2,1.2c0,0.6-0.5,1.2-1.2,1.2c-0.6,0-1.2-0.5-1.2-1.2
								C205.3,96.1,205.8,95.6,206.4,95.6z"/>
						</g>
						<g class="st1">
							<path class="st0" d="M208.1,96.3l0.6-0.7c0.2-0.2,0.4-0.1,0.5,0c0.3,0.3,0.7,0.7,1.4,0.7c0.8,0,1.7-0.6,1.7-2.1v-8
								c0-0.2,0.1-0.3,0.3-0.3h1.1c0.2,0,0.3,0.2,0.3,0.3v8c0,2.4-1.5,3.7-3.5,3.7c-1.5,0-2.3-0.9-2.6-1.2
								C208,96.6,208,96.4,208.1,96.3z"/>
						</g>
						<g class="st1">
							<path class="st0" d="M216.2,91.3c0-0.2,0.2-0.3,0.3-0.3h1c0.2,0,0.3,0.2,0.3,0.3v3.5c0,1.1,0.5,1.7,1.4,1.7
								c1,0,1.6-0.8,1.7-1.1v-4.1c0-0.3,0.1-0.3,0.4-0.3h0.9c0.2,0,0.3,0.2,0.3,0.3v6.2c0,0.2-0.2,0.3-0.3,0.3h-0.5
								c-0.2,0-0.3-0.1-0.3-0.3l-0.2-0.5c-0.2,0.1-0.9,0.9-2.2,0.9c-2,0-2.8-1.4-2.8-3.2V91.3z"/>
						</g>
						<g class="st1">
							<path class="st0" d="M224.6,86.2c0-0.2,0.2-0.3,0.3-0.3h1c0.2,0,0.3,0.2,0.3,0.3v11.3c0,0.2-0.2,0.3-0.3,0.3h-1
								c-0.2,0-0.3-0.2-0.3-0.3V86.2z"/>
						</g>
						<g class="st1">
							<path class="st0" d="M232,92c0-3.7,1.5-5.9,4.2-5.9c2.7,0,4.2,2.2,4.2,5.9s-1.5,5.9-4.2,5.9C233.5,98,232,95.8,232,92z
								 M238.7,92c0-2.8-0.9-4.4-2.5-4.4c-1.6,0-2.5,1.6-2.5,4.4c0,2.8,0.9,4.4,2.5,4.4C237.8,96.4,238.7,94.9,238.7,92z"/>
						</g>
						<g class="st1">
							<path class="st0" d="M244.1,88.9l-1.4,0.6c-0.2,0.1-0.3,0-0.4-0.1l-0.2-0.6c-0.1-0.1,0-0.3,0.1-0.3l2.4-2.2h0.8
								c0.2,0,0.3,0.2,0.3,0.3v10.9c0,0.2-0.1,0.3-0.3,0.3h-1c-0.2,0-0.3-0.2-0.3-0.3V88.9z"/>
						</g>
						<g class="st1">
							<path class="st0" d="M249.1,95.6c0.6,0,1.4,0.4,1.4,1.9c0,1.8-1.1,3-1.7,3.4c-0.2,0.1-0.3,0.1-0.4,0l-0.3-0.3
								c-0.1-0.1-0.1-0.3,0.1-0.4c0.2-0.2,1.2-1,1.2-2.3c0,0-0.2,0.1-0.4,0.1c-0.6,0-1.2-0.5-1.2-1.2S248.4,95.6,249.1,95.6z"/>
						</g>
						<g class="st1">
							<path class="st0" d="M255.5,97c1.3-1.4,3-3.6,4.3-5.1c0.9-1,1.3-1.8,1.3-2.5c0-0.9-0.6-1.9-2.1-1.9c-0.9,0-1.7,0.6-2.2,1.1
								c-0.1,0.1-0.3,0.1-0.5,0l-0.6-0.6c-0.1-0.1-0.1-0.3,0-0.4c0,0,1.3-1.7,3.3-1.7c2.4,0,3.7,1.5,3.7,3.3c0,1.3-0.7,2.2-1.6,3.3
								c-0.9,1.1-2.1,2.5-3.1,3.6h4.3c0.2,0,0.3,0.2,0.3,0.3v0.8c0,0.2-0.2,0.3-0.3,0.3h-6.6c-0.2,0-0.3-0.2-0.3-0.3V97z"/>
						</g>
						<g class="st1">
							<path class="st0" d="M264.9,92c0-3.7,1.5-5.9,4.2-5.9c2.7,0,4.2,2.2,4.2,5.9s-1.5,5.9-4.2,5.9C266.4,98,264.9,95.8,264.9,92z
								 M271.5,92c0-2.8-0.9-4.4-2.5-4.4c-1.6,0-2.5,1.6-2.5,4.4c0,2.8,0.9,4.4,2.5,4.4C270.6,96.4,271.5,94.9,271.5,92z"/>
						</g>
						<g class="st1">
							<path class="st0" d="M275.1,97c1.3-1.4,3-3.6,4.3-5.1c0.9-1,1.3-1.8,1.3-2.5c0-0.9-0.6-1.9-2.1-1.9c-0.9,0-1.7,0.6-2.2,1.1
								c-0.1,0.1-0.3,0.1-0.5,0l-0.6-0.6c-0.1-0.1-0.1-0.3,0-0.4c0,0,1.3-1.7,3.3-1.7c2.4,0,3.7,1.5,3.7,3.3c0,1.3-0.7,2.2-1.6,3.3
								c-0.9,1.1-2.1,2.5-3.1,3.6h4.3c0.2,0,0.3,0.2,0.3,0.3v0.8c0,0.2-0.2,0.3-0.3,0.3h-6.6c-0.2,0-0.3-0.2-0.3-0.3V97z"/>
						</g>
						<g class="st1">
							<path class="st0" d="M284.3,96c0.2-0.2,0.4-0.4,0.6-0.6c0.1-0.1,0.3-0.2,0.4,0c0.1,0.2,1.1,1.1,2.4,1.1
								c1.4,0,2.3-1.2,2.3-2.4c0-1.2-0.8-2.2-2.4-2.2H285c-0.3,0-0.5-0.3-0.5-0.6v-4.8c0-0.2,0.1-0.3,0.3-0.3h5.3
								c0.2,0,0.3,0.2,0.3,0.3v0.8c0,0.2-0.1,0.3-0.3,0.3h-4v2.7h1.7c2.5,0,3.9,1.4,3.9,3.7c0,2.1-1.7,3.9-4,3.9
								c-1.9,0-2.9-0.9-3.3-1.4C284.1,96.3,284.1,96.2,284.3,96z"/>
						</g>
					</g>
				</g>
			</g>
		</g>
	</g>
</g>
</svg>
