<svg version="1.1" id="Layer_1" xmlns="http://www.w3.org/2000/svg" xmlns:xlink="http://www.w3.org/1999/xlink" x="0px" y="0px"
	 width="250px" height="250px"
	 viewBox="0 0 300.9 300.9" style="enable-background:new 0 0 300.9 300.9;" xml:space="preserve">
<title>An icon of a ribbon for an award</title>
<style type="text/css">
	.st0{fill-rule:evenodd;clip-rule:evenodd;fill:#BEE9F6;}
	.st1{fill-rule:evenodd;clip-rule:evenodd;fill:#E02F00;}
</style>
<g>
	<circle class="st0" cx="150.4" cy="150.4" r="150.4"/>
	<g id="desktop">
		<g id="bixal_casestudies_businessusa" transform="translate(-220.000000, -3444.000000)">
			<g id="Group-10" transform="translate(220.006494, 3444.000000)">
				<g id="Group-3" transform="translate(0.000000, 0.000211)">
					<g id="Clip-2">
					</g>
					<path id="Fill-1" class="st1" d="M181.6,191.3c-0.6-0.1-1.3-0.1-1.9,0.2c-0.6,0.4-1,0.8-1.2,1.6l-3.6,13.4l-20.1-34.9
						c8.2-0.8,15.7-3.9,21.9-8.6l18.4,31.9L181.6,191.3z M126,206.5l-3.6-13.4c-0.1-0.6-0.6-1.2-1.2-1.6c-0.6-0.4-1.3-0.5-1.9-0.2
						l-13.4,3.6l18.4-31.9c6.2,4.7,13.8,7.9,21.9,8.6L126,206.5z M112.3,128.6c0-21,17.2-38.2,38.2-38.2s38.2,17.2,38.2,38.2
						s-17.2,38.2-38.2,38.2S112.3,149.6,112.3,128.6L112.3,128.6z M202.5,197.7l-22-38.1c8.1-7.9,13.2-18.8,13.2-31.1
						c0-23.9-19.5-43.4-43.4-43.4s-43.4,19.5-43.4,43.4c0,12.2,5.1,23.2,13.2,31.1l-22,38.1c-0.5,0.8-0.5,2.1,0.2,2.8
						c0.6,0.8,1.7,1.2,2.7,1l16.9-4.6l4.5,16.9c0.2,1,1.1,1.7,2.2,1.8c0.1,0,0.2,0,0.4,0c0.8,0,1.7-0.5,2.2-1.3l23.1-40l23.1,40
						c0.5,0.8,1.3,1.3,2.2,1.3c0.1,0,0.2,0,0.4,0c1-0.1,1.8-0.8,2.2-1.8l4.5-16.9l16.9,4.6c1,0.2,2.1-0.1,2.7-1
						C203,199.7,203,198.5,202.5,197.7L202.5,197.7z"/>
				</g>
				<path id="Fill-4" class="st1" d="M145.8,124.2c0.8-0.1,1.6-0.6,1.9-1.4l2.7-5.4l2.7,5.4c0.4,0.7,1.1,1.3,1.9,1.4l5.9,0.8
					l-4.3,4.2c-0.6,0.6-0.8,1.4-0.7,2.3l1,5.9l-5.3-2.8c-0.7-0.4-1.6-0.4-2.4,0l-5.3,2.8l1-5.9c0.1-0.8-0.1-1.7-0.7-2.3l-4.3-4.2
					L145.8,124.2z M134.5,123.4c-0.5,1.7-0.1,3.5,1.2,4.7l4.1,4l-1,5.6c-0.2,1.7,0.4,3.5,1.8,4.5c0.8,0.6,1.7,0.8,2.7,0.8
					c0.7,0,1.4-0.1,2.2-0.5l5.1-2.7l5.1,2.7c1.6,0.8,3.4,0.7,4.8-0.4c1.4-1.1,2.2-2.8,1.8-4.5l-1-5.6l4.1-4c1.2-1.2,1.7-3,1.2-4.7
					c-0.6-1.7-1.9-2.9-3.7-3.1l-5.7-0.8l-2.5-5.1c-0.7-1.6-2.3-2.5-4.1-2.5l0,0c-1.8,0-3.4,1-4.1,2.5l-2.5,5.1l-5.7,0.8
					C136.4,120.5,135,121.7,134.5,123.4L134.5,123.4z"/>
				<path id="Fill-6" class="st1" d="M150.4,160.6c17.8,0,32.1-14.4,32.1-32.1c0-13-7.9-24.6-19.8-29.7c-1.3-0.5-2.8,0.1-3.4,1.3
					c-0.5,1.3,0.1,2.8,1.3,3.4c10.1,4.2,16.7,14,16.7,25c0,14.9-12.1,27.1-27.1,27.1c-15,0-27.1-12.1-27.1-27.1
					c0-11,6.5-20.8,16.8-25c1.3-0.5,1.9-2.1,1.4-3.4c-0.5-1.3-2.1-1.9-3.4-1.4c-12.1,5-19.9,16.7-19.9,29.7
					C118.3,146.2,132.7,160.6,150.4,160.6"/>
				<path id="Fill-8" class="st1" d="M150.4,101.5c0.7,0,1.3-0.2,1.8-0.7c0.5-0.5,0.7-1.1,0.7-1.8c0-0.7-0.2-1.3-0.7-1.8
					c-0.5-0.5-1.1-0.7-1.8-0.7s-1.3,0.2-1.8,0.7c-0.5,0.5-0.7,1.1-0.7,1.8c0,0.7,0.2,1.3,0.7,1.8
					C149.1,101.3,149.8,101.5,150.4,101.5"/>
			</g>
		</g>
	</g>
</g>
</svg>
