<svg fill="#fff" id="Layer_1" data-name="Layer 1" xmlns="http://www.w3.org/2000/svg" viewBox="0 0 100 100"><defs><style>.cls-1{fill-rule:evenodd;}</style></defs><path class="cls-1" d="M50,0a50,50,0,1,0,50,50A50,50,0,0,0,50,0ZM79.06,73.15v-1l-4.55-4.46A1.38,1.38,0,0,1,74,66.4V33.6a1.38,1.38,0,0,1,.52-1.31l4.66-4.47v-1H63.05L51.55,55.51,38.48,26.85H21.57v1L27,34.39a2.23,2.23,0,0,1,.73,1.9V62.07A3,3,0,0,1,27,64.63l-6.13,7.44v1H38.21v-1l-6.13-7.44a3.07,3.07,0,0,1-.84-2.56V39.77L46.49,73.05h1.77L61.35,39.77V66.3c0,.7,0,.84-.46,1.3l-4.71,4.57v1Z"/></svg>