<?xml version="1.0" encoding="UTF-8"?>
<svg id="services-cloud" width="65px" height="98px" viewBox="0 0 65 98" version="1.1" xmlns="http://www.w3.org/2000/svg" xmlns:xlink="http://www.w3.org/1999/xlink">
    <g id="" stroke="none" stroke-width="1" fill="none" fill-rule="evenodd">
        <g id="" transform="translate(-10.000000, 0.000000)" fill="#06C5BC">
            <path d="M69.0286611,26.4865472 C69.0401182,26.0666183 69.046594,25.6466893 69.0346387,25.2287529 C69.0306536,25.0733343 69.0186984,24.9189121 69.0112263,24.7634935 C68.988312,24.2932528 68.9594201,23.8235102 68.9071158,23.3562583 C68.90064,23.2969801 68.889681,23.2382 68.8827071,23.1794199 C68.3930391,19.1225973 66.7930251,15.1932977 64.0572602,11.5658687 L64.0577583,11.5658687 C47.7069303,-8.56182927 17.6184976,-0.733616298 11.2179434,22.0720628 C12.8069984,21.4005749 14.5524682,21.0274708 16.3861082,21.0274708 C22.3278788,21.0274708 27.3575616,24.925886 29.061188,30.3042643 C29.7755155,30.1503402 30.5157462,30.0676495 31.2759023,30.0676495 C36.812688,30.0676495 41.3437363,34.3595925 41.7317846,39.7977472 C42.4222016,39.5740839 43.157949,39.4525387 43.9220902,39.4525387 C47.8498954,39.4525387 51.0334849,42.6361282 51.0334849,46.5639334 C51.0334849,50.4912405 47.8498954,53.67483 43.9220902,53.67483 L10,53.67483 L10,78.6369414 C10,78.6369414 10.0712335,97.3683631 10.0712335,98 C10.0712335,98 14.3836,92.3312082 16.060327,90.1344268 C26.2073648,76.8396654 39.3790865,65.1563751 52.0173042,53.8950063 C52.5881685,53.3859109 58.9409016,47.3933304 60.3830063,45.7659189 C60.7272186,45.3768744 61.0614681,44.9793616 61.393725,44.5808525 C61.5476492,44.3960439 61.700577,44.2117335 61.8510142,44.0249323 C62.1195097,43.6931735 62.3825257,43.3564333 62.6410585,43.0167043 C62.876677,42.7063654 63.1058197,42.3900488 63.3329699,42.0722378 C63.5192729,41.8127087 63.7075684,41.5546741 63.8873957,41.2896656 C64.3008488,40.6789504 64.7028449,40.0587706 65.0804323,39.4186654 C65.4465625,38.7984856 65.7838008,38.1758151 66.0996193,37.5516503 C66.2107037,37.3309759 66.3053496,37.1093052 66.4104563,36.8886308 C66.6022388,36.4861366 66.7945195,36.0831443 66.9653803,35.6796538 C67.081446,35.4051807 67.1810733,35.1302094 67.2876745,34.8557363 C67.4226694,34.507539 67.5581625,34.1588435 67.6777153,33.810148 C67.782822,33.503296 67.8734828,33.196444 67.9661362,32.889592 C68.0612803,32.575268 68.1559262,32.2614421 68.2386168,31.9476162 C68.3252925,31.6153592 68.4015074,31.2826041 68.4742353,30.9503472 C68.5370005,30.6664094 68.5962787,30.3824717 68.648583,30.0990321 C68.7138389,29.7413702 68.7706264,29.3842064 68.8199419,29.0270427 C68.8543134,28.7759819 68.8842015,28.5249212 68.9106028,28.2743586 C68.9509518,27.8888011 68.9848251,27.5037417 69.0057468,27.1191804 C69.0177021,26.9079706 69.0226834,26.6972589 69.0286611,26.4865472 M16.6476298,94.1688332 C15.5133733,95.4360921 14.3985441,96.717797 13.2842131,98 L44.1587049,98 C61.1038097,97.8879193 74.7751622,85.2741103 74.7751622,69.6410968 C74.7751622,62.3822537 71.7624334,55.6982599 66.7790773,50.6740565 C63.4470431,54.3582731 59.5072826,57.4521981 55.512229,60.502287 C41.9758714,70.8371222 27.8696458,81.6307409 16.6476298,94.1688332" id=""></path>
        </g>
    </g>
</svg>