<?xml version="1.0" encoding="utf-8"?>
<!-- Generator: Adobe Illustrator 24.1.2, SVG Export Plug-In . SVG Version: 6.00 Build 0)  -->
<svg version="1.1" id="Capa_1" xmlns="http://www.w3.org/2000/svg" xmlns:xlink="http://www.w3.org/1999/xlink" x="0px" y="0px"
	 viewBox="0 0 144.6 86" style="enable-background:new 0 0 144.6 86;" xml:space="preserve">
<style type="text/css">
	.st0{fill:#E02F00;}
</style>
<g id="bixal_casestudies_businessusa" transform="translate(-767.000000, -3883.000000)">
	<path class="st0" d="M847.9,3943.2c-6.1-26.2,15.7-56.3,42.2-60.2c0.2,0-12.8,12.1-13.9,22.8c3,0.1,5.7,0.1,8.3,0.4
		c12.5,1.3,23.2,11.1,26.6,23.3c4.3,23.9-13.4,39.6-31.1,39.6S851.2,3957.7,847.9,3943.2z"/>
	<path class="st0" d="M768,3943.2c-6.1-26.2,15.7-56.3,42.2-60.2c0.2,0-12.8,12.1-13.9,22.8c3,0.1,5.7,0.1,8.3,0.4
		c12.5,1.3,23.2,11.1,26.6,23.3c4.3,23.9-13.4,39.6-31.1,39.6S771.4,3957.7,768,3943.2z"/>
</g>
</svg>
