<?xml version="1.0" encoding="UTF-8"?>
<svg id="phone" width="18px" height="18px" viewBox="0 0 18 18" version="1.1" xmlns="http://www.w3.org/2000/svg" xmlns:xlink="http://www.w3.org/1999/xlink">
    <g id="" stroke="none" stroke-width="1" fill="none" fill-rule="evenodd">
        <g id="" transform="translate(-377.000000, -169.000000)">
            <g id="" transform="translate(377.000000, 72.000000)">
                <g id="">
                    <g id="" transform="translate(0.000000, 97.000000)">
                        <g id="icon">
                            <path fill="#fff" d="M17.681414,14.2022191 C17.787435,14.3084895 17.8678238,14.4276364 17.9216977,14.5600477 C17.9962539,14.7434223 18.0175502,14.9338944 17.9856633,15.133132 C17.9540066,15.3316714 17.8681691,15.5093446 17.7288414,15.6652207 L17.0705362,16.3897208 C16.8119109,16.6681181 16.5365938,16.9066834 16.2444699,17.1054555 C15.9523844,17.3041889 15.6436456,17.4714677 15.3175627,17.606943 C14.7930981,17.8248749 14.2393558,17.9519726 13.6559523,17.9883528 C13.0725103,18.0247717 12.4802428,17.9757477 11.8793034,17.841785 C11.2784023,17.7078611 10.6781535,17.4929157 10.0794013,17.1976858 C9.48045712,16.9020293 8.90223372,16.5353965 8.3454601,16.0969343 C8.00986106,15.8649624 7.6456751,15.5926155 7.25248011,15.2799325 C6.91872292,15.0132481 6.52971045,14.6893563 6.08486714,14.3079465 C5.64021568,13.9270022 5.17177376,13.493039 4.67915765,13.0078799 C4.18074742,12.5245437 3.76598753,12.0938773 3.43533845,11.7156867 C3.1044975,11.3369918 2.83800593,11.019034 2.63678464,10.761309 C2.40148927,10.4604165 2.21611551,10.1955551 2.08085521,9.96726775 C1.76417342,9.57046043 1.48329246,9.16155225 1.23871113,8.7403493 C0.994168179,8.31914634 0.782893505,7.88913923 0.604695251,7.45094853 C0.371663814,6.87794186 0.204554986,6.30318986 0.10252459,5.72587808 C0.00049419467,5.14856629 -0.025176484,4.58296751 0.024591633,4.02943081 C0.07435975,3.4758941 0.206818917,2.94427081 0.422007506,2.43448336 C0.637196095,1.92469592 0.945627957,1.45466289 1.34699612,1.02345346 L1.99885485,0.315514452 C2.10334103,0.208080549 2.21953059,0.128067501 2.3467712,0.0752038144 C2.52581364,0.000814562824 2.71299087,-0.0185002689 2.90837966,0.0177635216 C3.10334635,0.054260021 3.27567373,0.144706181 3.42451762,0.289955267 L6.41566971,3.1979622 C6.52215122,3.30407742 6.60131207,3.42147902 6.65361273,3.55012821 C6.73050965,3.73920413 6.75353268,3.93394262 6.72222136,4.13461519 C6.69091003,4.33524897 6.60418995,4.51214646 6.46144717,4.66503615 L5.17169701,6.06501239 C5.00121147,6.2500159 4.89868225,6.45964776 4.86341864,6.695343 C4.82861549,6.93084433 4.85528383,7.15750271 4.94399924,7.37562844 C5.01141835,7.54143348 5.10535231,7.68443304 5.22656857,7.80501499 L10.2886039,12.7467031 C10.4852205,12.9361668 10.6954592,13.0481385 10.9202791,13.0822304 C11.1446385,13.1165162 11.363434,13.0896383 11.5755145,13.0015192 C11.7201759,12.9414028 11.8540932,12.8468066 11.9774966,12.7181187 L13.2672468,11.3181424 C13.370505,11.2117557 13.4855435,11.1316263 13.6127841,11.0787626 C13.7881044,11.0059248 13.974284,10.9870366 14.1711309,11.0227186 C14.3679778,11.0584006 14.5417633,11.1471014 14.6922188,11.2894805 L17.681414,14.2022191 Z"></path>
                        </g>
                    </g>
                </g>
            </g>
        </g>
    </g>
</svg>