<svg fill="#fff" id="Layer_1" data-name="Layer 1" xmlns="http://www.w3.org/2000/svg" viewBox="0 0 100 100"><path d="M50,0a50,50,0,1,0,50,50A50,50,0,0,0,50,0ZM72,41.88C72.61,56.31,61.85,72.4,42.8,72.4a29.06,29.06,0,0,1-15.72-4.61,20.67,20.67,0,0,0,15.2-4.25,10.28,10.28,0,0,1-9.58-7.12,10.41,10.41,0,0,0,4.63-.18A10.28,10.28,0,0,1,29.1,46.05a10.25,10.25,0,0,0,4.64,1.29,10.28,10.28,0,0,1-3.17-13.7A29.12,29.12,0,0,0,51.71,44.36,10.26,10.26,0,0,1,69.19,35a20.43,20.43,0,0,0,6.51-2.48,10.31,10.31,0,0,1-4.51,5.67,20.31,20.31,0,0,0,5.89-1.62A20.52,20.52,0,0,1,72,41.88Z"/></svg>