<svg version="1.1" id="close-button" xmlns="http://www.w3.org/2000/svg" xmlns:xlink="http://www.w3.org/1999/xlink" x="0px" y="0px"
	 viewBox="0 0 22.06 24.4" style="enable-background:new 0 0 22.06 24.4;" xml:space="preserve"
	 width="23px" height="25px">
<title>Close</title>
<style type="text/css">
	.st0{enable-background:new    ;}
	.st1{fill:#000;}
	.st2{fill-rule:evenodd;clip-rule:evenodd;fill:#000;}
</style>
<g>
	<g class="st0">
		<path class="st1" d="M4.01,23.07c-0.31,0.83-0.87,1.34-1.86,1.34C0.85,24.4,0,23.44,0,21.9c0-1.53,0.88-2.5,2.16-2.5
			c1.07,0,1.63,0.59,1.8,1.42l-0.9,0.33c-0.17-0.63-0.4-0.99-0.92-0.99c-0.62,0-1.04,0.57-1.04,1.74c0,1.16,0.41,1.74,1.1,1.74
			c0.54,0,0.83-0.28,1.07-0.9L4.01,23.07z"/>
		<path class="st1" d="M8.14,24.33H5.16v-4.86H6.2v4.01h1.94V24.33z"/>
		<path class="st1" d="M11.02,24.4c-1.33,0-2.19-0.95-2.19-2.51c0-1.54,0.87-2.49,2.19-2.49c1.33,0,2.2,0.95,2.2,2.5
			S12.34,24.4,11.02,24.4z M11.02,20.15c-0.69,0-1.1,0.57-1.1,1.74c0,1.18,0.42,1.76,1.1,1.76c0.69,0,1.11-0.57,1.11-1.75
			S11.71,20.15,11.02,20.15z"/>
		<path class="st1" d="M15.91,24.39c-0.85,0-1.45-0.28-1.86-0.62l0.46-0.64c0.38,0.3,0.82,0.52,1.42,0.52c0.51,0,0.81-0.2,0.81-0.6
			c0-0.36-0.19-0.55-0.9-0.71c-1.08-0.24-1.63-0.55-1.63-1.48c0-0.81,0.55-1.44,1.72-1.44c0.72,0,1.22,0.22,1.6,0.55l-0.45,0.66
			c-0.37-0.27-0.74-0.46-1.2-0.46c-0.45,0-0.74,0.21-0.74,0.54c0,0.39,0.23,0.55,0.91,0.69c1.14,0.25,1.62,0.63,1.62,1.48
			C17.68,23.92,16.89,24.39,15.91,24.39z"/>
		<path class="st1" d="M22.06,24.33h-3.19v-4.86h3.11v0.8h-2.09v1.18h1.62v0.81h-1.62v1.28h2.17V24.33z"/>
	</g>
	<g>
		<path id="color-2" class="st2" d="M3.25,13.87L16.69,0.44c0.59-0.59,1.54-0.59,2.12,0c0.59,0.59,0.59,1.54,0,2.12L5.37,16
			c-0.59,0.59-1.54,0.59-2.12,0C2.67,15.41,2.67,14.46,3.25,13.87z"/>
		<path id="color-1" class="st2" d="M5.37,0.44l13.44,13.44c0.59,0.59,0.59,1.54,0,2.12c-0.59,0.59-1.54,0.59-2.12,0L3.25,2.56
			c-0.59-0.59-0.59-1.54,0-2.12S4.79-0.15,5.37,0.44z"/>
	</g>
</g>
</svg>
