<?xml version="1.0" encoding="UTF-8"?>
<svg id="services-customer" width="65px" height="98px" viewBox="0 0 65 98" version="1.1" xmlns="http://www.w3.org/2000/svg" xmlns:xlink="http://www.w3.org/1999/xlink">
    <g id="" stroke="none" stroke-width="1" fill="none" fill-rule="evenodd">
        <g id="" transform="translate(-10.000000, 0.000000)" fill="#55052A">
            <path d="M69.0291179,26.4859938 C69.0405751,26.0660616 69.0470509,25.6461294 69.0350956,25.2281897 C69.0311105,25.07277 69.0191551,24.9183465 69.011683,24.7629268 C68.9887685,24.2926824 68.9598764,23.8229362 68.9075717,23.3556806 C68.9010959,23.2964019 68.8901368,23.2376214 68.8831628,23.1788409 C68.393491,19.1219869 66.7934646,15.1926569 64.0576785,11.5651998 L64.0581766,11.5651998 C46.9789411,-9.45930634 14.9151495,0.0208001811 10.51159,25.2102567 L42.8164814,16.294543 C42.8752619,16.2781044 42.9350388,16.2601713 42.9953137,16.2477178 C43.0819901,16.2297848 43.1716554,16.2203201 43.2638113,16.2203201 C43.9896016,16.2203201 44.5779052,16.8086237 44.5779052,17.534414 C44.5779052,17.6176034 44.569935,17.6997966 44.5549908,17.7785027 C44.5420391,17.8472461 44.5226116,17.9139969 44.5041805,17.9807477 L34.0143437,55.9913371 C33.9157119,56.3480055 33.6676381,56.6473878 33.336873,56.8127704 C32.690287,57.1355652 31.9042217,56.8740416 31.5814269,56.2274556 L24.949188,42.963476 L10.0273977,57.8852662 C10.0194275,57.8937346 10.0084684,57.8957272 10,57.9036974 L10,78.6367915 C10,78.6367915 10.0712341,97.3683582 10.0712341,98 C10.0712341,98 14.3836339,92.3311643 16.0603739,90.1343659 C26.2074902,76.8395016 39.3793139,65.1561209 52.0176294,53.8946649 C52.5884981,53.3855656 58.9412803,47.3929388 60.3833962,45.7655147 C60.7276111,45.3764672 61.0618632,44.9789513 61.3941228,44.5804391 C61.5480481,44.3956291 61.7009771,44.2113172 61.8514155,44.0245146 C62.1199131,43.6927532 62.3829311,43.3560105 62.6414659,43.0162788 C62.8770862,42.7059375 63.1062307,42.3896184 63.3333826,42.071805 C63.5196871,41.8122739 63.7079841,41.5542373 63.8878127,41.2892267 C64.3012691,40.6785068 64.7032682,40.0583222 65.0808585,39.418212 C65.4469916,38.7980274 65.7842325,38.1753522 66.1000534,37.5511825 C66.2111387,37.3305064 66.3057853,37.108834 66.4108929,36.8881578 C66.6026769,36.4856605 66.794959,36.0826651 66.9658211,35.6791715 C67.0818878,35.4046963 67.1815158,35.1297229 67.2881178,34.8552476 C67.4231138,34.5070476 67.558608,34.1583494 67.6781616,33.8096513 C67.7832692,33.5027969 67.8739307,33.1959425 67.9665848,32.8890882 C68.0617296,32.5752598 68.1563762,32.2609333 68.2390675,31.947105 C68.3257439,31.6148455 68.4019594,31.2820878 68.4746878,30.9498283 C68.5374535,30.6658884 68.5967322,30.3819484 68.6490369,30.0985066 C68.7142933,29.740842 68.7710813,29.3836754 68.8203971,29.0265089 C68.8547688,28.7754462 68.8846572,28.5243836 68.9110587,28.273819 C68.951408,27.8882585 68.9852816,27.5031961 69.0062034,27.1186319 C69.0181588,26.9074204 69.0231402,26.6967071 69.0291179,26.4859938 L69.0291179,26.4859938 Z M17.8347494,35.8490373 L10,31.9316627 L10,43.6837867 L17.8347494,35.8490373 Z M16.6476812,94.1688036 C15.513416,95.4360723 14.3985781,96.7177871 13.2842385,98 L44.1589693,98 C61.1042051,97.8879185 74.7756635,85.2740118 74.7756635,69.6408773 C74.7756635,62.381978 71.7629114,55.6979325 66.7795167,50.6736903 C63.4474567,54.3579353 59.5076657,57.4518843 55.5125812,60.5019968 C41.9761188,70.836912 27.8697841,81.6306142 16.6476812,94.1688036 L16.6476812,94.1688036 Z" id=""></path>
        </g>
    </g>
</svg>