<?xml version="1.0" encoding="UTF-8"?>
<svg id="services-strategy" width="65px" height="98px" viewBox="0 0 65 98" version="1.1" xmlns="http://www.w3.org/2000/svg" xmlns:xlink="http://www.w3.org/1999/xlink">
    <g id="" stroke="none" stroke-width="1" fill="none" fill-rule="evenodd">
        <g id="" transform="translate(-10.000000, 0.000000)" fill="#7D0096">
            <path d="M69.0286916,26.4865102 C69.0401488,26.066581 69.0466246,25.6466518 69.0346693,25.2287152 C69.0306842,25.0732966 69.0187289,24.9188742 69.0112569,24.7634556 C68.9883426,24.2932146 68.9594506,23.8234718 68.9071463,23.3562197 C68.9006705,23.2969414 68.8897115,23.2381613 68.8827376,23.1793812 C68.3930693,19.1225565 66.7930545,15.1932548 64.0572881,11.5658239 L64.0577863,11.5658239 C48.2902678,-7.84406957 19.7485337,-1.25621273 11.9920484,19.689436 L40.4476048,19.689436 C43.1514904,19.689436 45.3642132,21.9021589 45.3642132,24.6055463 L45.3642132,46.72879 C45.3642132,49.4326756 43.1514904,51.6453984 40.4476048,51.6453984 L37.9897987,51.6453984 L37.9897987,57.7914081 C37.9897987,58.4698702 37.4398559,59.019813 36.7603975,59.019813 C36.4186758,59.019813 36.1088348,58.8798366 35.8856696,58.6536826 L28.8768873,51.6453984 L10.9499465,51.6453984 C10.6246633,51.6453984 10.3078484,51.6115252 10,51.5507525 L10,78.6369313 C10,78.6369313 10.0712335,97.3683628 10.0712335,98 C10.0712335,98 14.3836023,92.3312052 16.0603302,90.1344227 C26.2073732,76.8396544 39.3786036,65.1563581 52.0168278,53.8949834 C52.5881905,53.3858878 58.9409269,47.3933042 60.3830324,45.7658919 C60.7272448,45.3768472 61.0614945,44.9793342 61.3937516,44.5808249 C61.5476758,44.3960162 61.7006038,44.2117056 61.851041,44.0249044 C62.1195367,43.6931454 62.3825528,43.356405 62.6410857,43.0166759 C62.8767044,42.7063368 63.1058472,42.39002 63.3329975,42.0722088 C63.5193006,41.8126797 63.7075962,41.5546449 63.8874236,41.2896362 C64.3003788,40.6789207 64.7028732,40.0587406 65.0804608,39.418635 C65.4465912,38.798455 65.7838297,38.1757842 66.0996483,37.551619 C66.2107328,37.3309445 66.3053787,37.1092737 66.4104856,36.8885991 C66.6022682,36.4861048 66.7945489,36.0831122 66.9654097,35.6796216 C67.0814756,35.4051483 67.1811029,35.1301769 67.287206,34.8557036 C67.422201,34.5075061 67.5581923,34.1588104 67.6777451,33.8101148 C67.7828519,33.5032627 67.8735128,33.1964105 67.9661662,32.8895583 C68.0613103,32.5752341 68.1559563,32.2614081 68.2381488,31.947582 C68.3253227,31.6153249 68.4015376,31.2825696 68.4742656,30.9503125 C68.5370308,30.6663746 68.5963091,30.3824367 68.6486134,30.098997 C68.7138693,29.7413349 68.7706569,29.3841709 68.8199724,29.027007 C68.8543438,28.7759461 68.884232,28.5248852 68.9106333,28.2743225 C68.9509823,27.8887648 68.9848556,27.5037052 69.0057774,27.1191437 C69.0177326,26.9079338 69.022714,26.697222 69.0286916,26.4865102 M16.6476332,94.1688312 C15.5133761,95.4360908 14.3985464,96.7177963 13.2842148,98 L44.1587226,98 C61.1038361,97.8879193 74.7751957,85.2741037 74.7751957,69.6410821 C74.7751957,62.3822352 71.7624654,55.698238 66.7791067,50.674032 C63.4470708,54.3582505 59.5073082,57.4521771 55.5122525,60.5022676 C41.9758879,70.8371081 27.8696551,81.6307324 16.6476332,94.1688312" id="Fill-1"></path>
        </g>
    </g>
</svg>