<?xml version="1.0" encoding="UTF-8"?>
<svg id="services-agile" width="65px" height="98px" viewBox="0 0 65 98" version="1.1" xmlns="http://www.w3.org/2000/svg" xmlns:xlink="http://www.w3.org/1999/xlink">
    <g id="" stroke="none" stroke-width="1" fill="none" fill-rule="evenodd">
        <g id="" transform="translate(-10.000000, 0.000000)" fill="#DEEC1E">
            <path d="M69.0285257,26.4867601 C69.0399828,26.0668324 69.0464585,25.6469047 69.0345033,25.2289695 C69.0305182,25.0735514 69.018563,24.9191296 69.0110909,24.7637115 C68.9881767,24.2934722 68.9592849,23.823731 68.9069807,23.3564805 C68.900505,23.2972025 68.889546,23.2384225 68.8825721,23.1796426 C68.3929056,19.1228321 66.7928963,15.1935442 64.0571395,11.566126 L64.0576377,11.566126 C45.6829363,-11.0536809 9.95620443,1.63281831 10,31.2065881 L10,36.2507019 L24.0026118,14.0787183 C24.2780804,13.5581674 24.8250325,13.2029972 25.454675,13.2029972 C26.3607824,13.2029972 27.0960294,13.9377462 27.0960294,14.8443516 L27.0960294,31.2549072 L45.1474413,31.2549072 C45.4567831,31.2549072 45.7596491,31.3480584 46.0196755,31.5119448 C46.7848106,31.9931431 47.0139527,33.0033606 46.5322563,33.7679977 L26.9067382,64.8426479 C26.6317677,65.3627007 26.0843175,65.7173727 25.454675,65.7173727 C24.5485677,65.7173727 23.8133206,64.98362 23.8133206,64.0775127 L23.8133206,47.6659609 L10,47.6659609 L10,78.636999 C10,78.636999 10.0712736,97.368365 10.0712736,98 C10.0712736,98 14.3836273,92.331225 16.0603493,90.1344502 C26.2073568,76.8397284 39.3790394,65.1564728 52.0172194,53.8951376 C52.588082,53.3860437 58.9407962,47.3934811 60.3828967,45.7660744 C60.7271079,45.3770311 61.0613564,44.9795195 61.3941105,44.5810115 C61.547536,44.3962035 61.7004634,44.2118936 61.8513983,44.025093 C62.1193949,43.6933352 62.3824101,43.356596 62.6409421,43.016868 C62.8765599,42.70653 63.1057019,42.3902143 63.3328514,42.0724043 C63.5191539,41.812876 63.7074489,41.5548421 63.8872755,41.2898344 C64.3007275,40.679121 64.7027223,40.0589431 65.0803086,39.4188398 C65.4464377,38.7986618 65.783675,38.1759932 66.0994926,37.5518302 C66.2105766,37.3311565 66.3052223,37.1094865 66.4103287,36.8888127 C66.6021107,36.4863197 66.7943907,36.0833286 66.965251,35.6798393 C67.0813164,35.405367 67.1809434,35.1303966 67.2875442,34.8559242 C67.4225388,34.507728 67.5580315,34.1590335 67.6775839,33.8103391 C67.7826903,33.503488 67.8733509,33.196637 67.9665021,32.8897859 C68.0616459,32.5754628 68.1557933,32.2616378 68.2384837,31.9478128 C68.3251592,31.6155568 68.4013738,31.2828027 68.4741015,30.9505468 C68.5368665,30.6666099 68.5961446,30.382673 68.6484487,30.0992343 C68.7137044,29.7415734 68.7709899,29.3844107 68.8198071,29.027248 C68.8541785,28.776188 68.8840665,28.525128 68.9104677,28.2745662 C68.9508166,27.8890098 68.9846898,27.5039515 69.0061096,27.1193914 C69.0175667,26.9081822 69.022548,26.6974712 69.0285257,26.4867601 M16.6476503,94.1688446 C15.5133972,95.4360998 14.3985713,96.7178008 13.2847417,98 L44.1586436,98 C61.1036978,97.8879197 74.7750097,85.2741482 74.7750097,69.6411812 C74.7750097,62.3823597 71.7622899,55.6983858 66.7789485,50.6741974 C63.4469243,54.358403 59.5076737,57.4523188 55.5121338,60.5023986 C41.9758165,70.837203 27.8696329,81.6307896 16.6476503,94.1688446" id=""></path>
        </g>
    </g>
</svg>