<svg xmlns="http://www.w3.org/2000/svg" height="24" width="24" fill="#fff" data-name="Layer 1" viewBox="0 0 100 100"><path d="M50 0a50 50 0 1 0 50 50A50 50 0 0 0 50 0m29.06 73.15v-1l-4.55-4.46A1.38 1.38 0 0 1 74 66.4V33.6a1.38 1.38 0 0 1 .52-1.31l4.66-4.47v-1H63.05l-11.5 28.69-13.07-28.66H21.57v1L27 34.39a2.23 2.23 0 0 1 .73 1.9v25.78a3 3 0 0 1-.73 2.56l-6.13 7.44v1h17.34v-1l-6.13-7.44a3.07 3.07 0 0 1-.84-2.56v-22.3l15.25 33.28h1.77l13.09-33.28V66.3c0 .7 0 .84-.46 1.3l-4.71 4.57v1Z" style="fill-rule:evenodd"/><script/></svg>
