<svg xmlns="http://www.w3.org/2000/svg" fill="#fff" data-name="Layer 1" style="background:#000" viewBox="0 0 100 100"><path d="M50 0a50 50 0 1 0 50 50A50 50 0 0 0 50 0m22 41.88c.61 14.43-10.15 30.52-29.2 30.52a29.06 29.06 0 0 1-15.72-4.61 20.67 20.67 0 0 0 15.2-4.25 10.28 10.28 0 0 1-9.58-7.12 10.4 10.4 0 0 0 4.63-.18 10.28 10.28 0 0 1-8.23-10.19 10.25 10.25 0 0 0 4.64 1.29 10.28 10.28 0 0 1-3.17-13.7 29.12 29.12 0 0 0 21.14 10.72A10.26 10.26 0 0 1 69.19 35a20.4 20.4 0 0 0 6.51-2.48 10.3 10.3 0 0 1-4.51 5.67 20.3 20.3 0 0 0 5.89-1.62A20.5 20.5 0 0 1 72 41.88"/><script/></svg>