<?xml version="1.0" encoding="UTF-8"?>
<svg id="location-pin" width="14px" height="18px" viewBox="0 0 14 18" version="1.1" xmlns="http://www.w3.org/2000/svg" xmlns:xlink="http://www.w3.org/1999/xlink">
    <g id="" stroke="none" stroke-width="1" fill="none" fill-rule="evenodd">
        <g id="" transform="translate(-379.000000, -112.000000)">
            <g id="" transform="translate(377.000000, 72.000000)">
                <g id="">
                    <g id="" transform="translate(0.000000, 40.000000)">
                        <g id="" transform="translate(2.250000, -0.000010)">
                             <path fill="#fff" d="M6.74243075,0 C3.01514223,0 0,3.03303972 0,6.78241924 C0,8.73333508 0.969668402,10.5013083 1.92423179,12.1321926 C3.09090176,14.1594187 4.48485033,16.0492526 6.10604399,17.7257883 C6.45449764,18.0914039 7.03043083,18.0914039 7.39395601,17.7257883 C8.81821508,16.3083707 10.0757496,14.7079769 11.1363495,13.0009508 C12.2727425,11.1565999 13.5,9.02277517 13.5,6.78241924 C13.484828,3.04826809 10.4696858,0 6.74243075,0 M6.74243075,10.7147413 C4.48485033,10.7147413 2.65148309,8.87049148 2.65148309,6.59954405 C2.65148309,4.32856293 4.48485033,2.48427937 6.74243075,2.48427937 C9.00001116,2.48427937 10.8333784,4.31326717 10.8333784,6.59954405 C10.8333784,8.88575354 9.00001116,10.7147413 6.74243075,10.7147413" id=""></path>
                        </g>
                    </g>
                </g>
            </g>
        </g>
    </g>
</svg>