<svg fill="#fff" version="1.1" id="Layer_1" xmlns="http://www.w3.org/2000/svg" xmlns:xlink="http://www.w3.org/1999/xlink" x="0px" y="0px"
	 viewBox="0 0 100 100" style="enable-background:new 0 0 100 100;" xml:space="preserve">
<path d="M50,0C22.4,0,0,22.4,0,50s22.4,50,50,50s50-22.4,50-50S77.6,0,50,0z M59.2,77.6c-1.5,0.3-2-0.6-2-1.4v-8c0-2.7-1-4.5-2-5.4
	c6.5-0.7,13.3-3.2,13.3-14.4c0-3.2-1.1-5.8-3-7.8c0.3-0.7,1.3-3.7-0.3-7.7c0,0-2.4-0.8-8,3c-2.3-0.6-4.8-1-7.3-1c-2.5,0-5,0.3-7.3,1
	c-5.6-3.8-8-3-8-3c-1.6,4-0.6,7-0.3,7.7c-1.9,2-3,4.6-3,7.8c0,11.2,6.8,13.7,13.3,14.4c-0.8,0.7-1.6,2-1.8,3.9
	c-1.7,0.7-5.9,2-8.5-2.4c0,0-1.5-2.8-4.5-3c0,0-2.8,0-0.2,1.8c0,0,1.9,0.9,3.2,4.3c0,0,1.7,5.2,9.8,3.4v5.4c0,0.8-0.5,1.7-1.9,1.4
	c-11.6-3.9-20-14.8-20-27.7c0-16.1,13.1-29.2,29.2-29.2s29.2,13.1,29.2,29.2C79.2,62.8,70.8,73.7,59.2,77.6z"/>
</svg>
