<?xml version="1.0" encoding="UTF-8"?>
<svg width="391px" height="588px" viewBox="0 0 391 588" version="1.1" xmlns="http://www.w3.org/2000/svg" xmlns:xlink="http://www.w3.org/1999/xlink">
    <title>logo</title>
    <defs>
        <path d="M354.429714,158.650278 C354.497069,156.135777 354.537408,153.621645 354.465612,151.116374 C354.438226,150.186773 354.371241,149.257541 354.326091,148.332739 C354.18657,145.512924 354.015591,142.697909 353.700281,139.900614 C353.659942,139.54583 353.592217,139.195845 353.551878,138.841061 C350.613052,114.541848 341.003857,91.0061046 324.580331,69.2797236 C214.252415,-66.2101968 -0.264857803,9.78045106 0.000245485362,186.923 L0.000245485362,471.018044 C0.000245485362,471.018044 0.428306919,582.303631 0.428306919,586.088489 C0.428306919,586.088489 26.3211365,553.042977 36.3851629,539.887903 C97.3170436,460.256009 176.400366,390.272697 252.283954,322.821606 C255.713509,319.773267 293.857924,283.87656 302.517487,274.129408 C304.587729,271.79876 306.590246,269.419379 308.589062,267.03077 C309.511678,265.926176 310.429483,264.821952 311.334335,263.699268 C312.945674,261.714913 314.520746,259.698808 316.073612,257.664983 C317.491399,255.80135 318.868846,253.907076 320.232601,252.003202 C321.3484,250.449683 322.478262,248.905393 323.558533,247.320493 C326.038457,243.661158 328.455096,239.947922 330.723702,236.109164 C332.920143,232.395928 334.945605,228.664971 336.840428,224.925154 C337.511017,223.604958 338.077984,222.280332 338.708235,220.956075 C339.860672,218.544576 341.012739,216.133815 342.038978,213.713455 C342.736214,212.070594 343.335007,210.422564 343.97414,208.779333 C344.784621,206.691607 345.599173,204.603881 346.318984,202.516155 C346.949234,200.679842 347.493996,198.83873 348.05208,197.002786 C348.623858,195.121433 349.190825,193.240079 349.685995,191.363156 C350.207812,189.369941 350.662273,187.376356 351.09897,185.387202 C351.476825,183.68564 351.832474,181.988509 352.147785,180.286578 C352.539332,178.145321 352.881288,176.003694 353.173654,173.866497 C353.385341,172.362449 353.56076,170.858031 353.718415,169.358781 C353.961189,167.050653 354.168436,164.742894 354.294634,162.439935 C354.36643,161.173639 354.393446,159.911774 354.429714,158.650278 M39.9135305,564.051995 C33.1040105,571.640169 26.4114366,579.317685 19.7188628,587 L205.102122,587 C306.847083,586.326242 388.932515,510.77123 388.932515,417.135142 C388.932515,373.655799 370.843988,333.619451 340.922809,303.528875 C320.912072,325.59638 297.260093,344.126011 273.270968,362.395369 C191.995647,424.300972 107.295211,488.950707 39.9135305,564.051995" id="path-1"></path>
    </defs>
    <g id="desktop" stroke="none" stroke-width="1" fill="none" fill-rule="evenodd">
        <g id="bixal_casestudies" transform="translate(-96.000000, -133.000000)">
            <g id="Hero" transform="translate(7.476471, 85.000000)">
                <g id="logo" transform="translate(89.523529, 48.500000)">
                    <mask id="mask-2" fill="white">
                        <use xlink:href="#path-1"></use>
                    </mask>
                    <use id="Mask" fill="#000000" xlink:href="#path-1"></use>
                    <g id="color/primary/green" mask="url(#mask-2)" fill="#DEEC1E">
                        <g transform="translate(-28.000000, -13.500000)" id="swatch">
                            <rect x="0" y="0" width="512" height="717"></rect>
                        </g>
                    </g>
                </g>
            </g>
        </g>
    </g>
</svg>