<?xml version="1.0" encoding="UTF-8"?>
<svg id="services-data" width="65px" height="98px" viewBox="0 0 65 98" version="1.1" xmlns="http://www.w3.org/2000/svg" xmlns:xlink="http://www.w3.org/1999/xlink">
    <!-- Generator: Sketch 62 (91390) - https://sketch.com -->
    <title>b</title>
    <desc>Created with Sketch.</desc>
    <g id="" stroke="none" stroke-width="1" fill="none" fill-rule="evenodd">
        <g id="" transform="translate(-10.000000, 0.000000)" fill="#FDA305">
            <path d="M69.0293499,26.4857127 C69.0408072,26.0657788 69.047283,25.645845 69.0353276,25.2279037 C69.0313425,25.0724833 69.0193871,24.9175611 69.0119149,24.7626389 C68.9890004,24.2923927 68.9601081,23.8226446 68.9078032,23.3553873 C68.9013274,23.2961083 68.8903682,23.2373276 68.8833942,23.1785468 C68.3937205,19.1216769 66.7936878,15.1923314 64.057891,11.5648601 L64.0583891,11.5648601 C49.3178639,-6.58096505 23.4149688,-2.0025403 13.7654567,15.7841243 L45.6271285,15.7841243 C47.3213101,15.7841243 48.7081379,17.1709521 48.7081379,18.8656318 L48.7081379,25.0266543 C48.7081379,26.7218321 47.3213101,28.1081618 45.6271285,28.1081618 L10.1344984,28.1081618 C10.0478216,29.1139108 9.99900372,30.1395856 10,31.188673 L33.3035892,31.188673 C34.9972726,31.188673 36.3841004,32.5755008 36.3841004,34.2696824 L36.3841004,40.431203 C36.3841004,42.1263808 34.9982689,43.5122123 33.3035892,43.5122123 L10,43.5122123 L10,46.5932217 L20.9800499,46.5932217 C22.6742314,46.5932217 24.0610592,47.9790532 24.0610592,49.6742311 L24.0610592,55.8357517 C24.0610592,57.5309295 22.6742314,58.916761 20.9800499,58.916761 L10,58.916761 L10,78.6367154 C10,78.6367154 10.0712343,97.3683557 10.0712343,98 C10.0712343,98 14.3836512,92.331142 16.0603977,90.134335 C26.2075539,76.8394184 39.3794294,65.1559918 52.0172964,53.8944916 C52.5886655,53.3853903 58.9414727,47.3927399 60.3835943,45.7653094 C60.7278105,45.3762604 61.0620639,44.9787429 61.3943247,44.5802292 C61.5477525,44.3954184 61.7011803,44.2111058 61.8516193,44.0243025 C62.1201179,43.6925398 62.383137,43.3557957 62.6416728,43.0160627 C62.877294,42.7057201 63.1064394,42.3893999 63.3335922,42.0715852 C63.5198974,41.8120531 63.7081952,41.5540154 63.8880245,41.2890038 C64.3014825,40.6782815 64.7034832,40.0580945 65.081075,39.4179818 C65.4472095,38.7977948 65.7844518,38.175117 66.0997758,37.5509449 C66.2113596,37.3302679 66.3060066,37.1085946 66.4111146,36.8879177 C66.6028994,36.4854188 66.7951822,36.0824217 66.966045,35.6789266 C67.0821121,35.4044502 67.1817406,35.1294758 67.2878449,34.8549994 C67.4233395,34.5062999 67.5588342,34.1580985 67.6783883,33.809399 C67.7834963,33.5025434 67.8741582,33.1956878 67.9668126,32.8888322 C68.0624559,32.5745045 68.1566048,32.260675 68.2387983,31.9468454 C68.3259731,31.6140864 68.4021889,31.2818256 68.4749177,30.9495648 C68.5376836,30.6656237 68.5969625,30.3816827 68.6492674,30.0982398 C68.714524,29.7405737 68.7713123,29.3834057 68.8206283,29.0262378 C68.8550001,28.7751741 68.8848887,28.5241105 68.9112902,28.273545 C68.9516397,27.8879829 68.9855134,27.502919 69.0064354,27.1183533 C69.0183908,26.907141 69.0233722,26.6964268 69.0293499,26.4857127 M16.6477074,94.1687885 C15.5134376,95.4360622 14.3985954,96.717782 13.2842514,98 L44.1591035,98 C61.104406,97.887918 74.7759181,85.2739618 74.7759181,69.6407658 C74.7759181,62.381838 71.7631542,55.6977663 66.7797398,50.6735043 C63.4476668,54.3577638 59.5083585,57.4517249 55.5127601,60.5018494 C41.9762445,70.8368052 27.8698543,81.6305499 16.6477074,94.1687885" id=""></path>
        </g>
    </g>
</svg>