<svg fill="#fff" version="1.1" id="Layer_1" xmlns="http://www.w3.org/2000/svg" xmlns:xlink="http://www.w3.org/1999/xlink" x="0px" y="0px"
	 viewBox="0 0 100 100" style="enable-background:new 0 0 100 100;" xml:space="preserve">
<path d="M50,0C22.4,0,0,22.4,0,50s22.4,50,50,50s50-22.4,50-50S77.6,0,50,0z M48.2,68.2c-4.3,4.7-11.7,5-16.4,0.6
	c-4.7-4.3-5-11.7-0.6-16.4c0.2-0.2,0.4-0.4,0.6-0.6l7.8-7.8c0.8-0.8,1.6-1.5,2.6-2c5.3-2.9,11.9-1.3,15.2,3.7l-4,4
	c-1.3-3.1-4.9-4.5-8-3.1C44.6,47,44,47.4,43.5,48l-7.8,7.8c-2.4,2.4-2.4,6.2,0,8.5s6.2,2.4,8.5,0l2.4-2.4c2.2,0.8,4.5,1.2,6.8,1
	L48.2,68.2z M68.2,48.2l-7.8,7.8c-2.8,2.9-7,4-10.9,3.1c-2.1-0.5-4-1.6-5.5-3.1c-0.5-0.5-1-1.1-1.4-1.8l4-4c0.3,0.7,0.8,1.4,1.3,1.9
	c2.4,2.4,6.2,2.4,8.5,0l7.8-7.8c2.4-2.4,2.4-6.2,0-8.5c-2.4-2.4-6.2-2.4-8.5,0L53.4,38c-2.2-0.8-4.5-1.2-6.8-1l5.3-5.3
	c4.5-4.5,11.9-4.5,16.4,0C72.8,36.3,72.7,43.7,68.2,48.2z"/>
</svg>
