<?xml version="1.0" encoding="utf-8"?>
<!-- Generator: Adobe Illustrator 24.1.2, SVG Export Plug-In . SVG Version: 6.00 Build 0)  -->
<svg version="1.1" id="Layer_1" xmlns="http://www.w3.org/2000/svg" xmlns:xlink="http://www.w3.org/1999/xlink" x="0px" y="0px"
	 viewBox="0 0 74.7 60" style="enable-background:new 0 0 74.7 60;" xml:space="preserve">
<style type="text/css">
	.st0{filter:url(#Adobe_OpacityMaskFilter);}
	.st1{fill-rule:evenodd;clip-rule:evenodd;fill:#FFFFFF;}
	.st2{mask:url(#mask-2_2_);fill-rule:evenodd;clip-rule:evenodd;fill:#FFFFFF;}
	.st3{filter:url(#Adobe_OpacityMaskFilter_1_);}
	.st4{mask:url(#mask-4_2_);fill-rule:evenodd;clip-rule:evenodd;fill:#FFFFFF;}
	.st5{filter:url(#Adobe_OpacityMaskFilter_2_);}
	.st6{mask:url(#mask-6_2_);fill-rule:evenodd;clip-rule:evenodd;fill:#FFFFFF;}
</style>
<g id="desktop">
	<g id="bixal-casestudies-sba-centered" transform="translate(-327.000000, -10764.000000)">
		<g id="Delivering-the-Solution" transform="translate(156.000000, 10721.500000)">
			<g id="Technology" transform="translate(0.041391, 0.500000)">
				<g id="tech-icon" transform="translate(171.458609, 43.964844)">
					<g id="Group-3" transform="translate(49.854672, 8.291464)">
						<g id="Clip-2">
						</g>
						<defs>
							<filter id="Adobe_OpacityMaskFilter" filterUnits="userSpaceOnUse" x="-0.5" y="-2" width="24.8" height="43.4">
								<feColorMatrix  type="matrix" values="1 0 0 0 0  0 1 0 0 0  0 0 1 0 0  0 0 0 1 0"/>
							</filter>
						</defs>
						<mask maskUnits="userSpaceOnUse" x="-0.5" y="-2" width="24.8" height="43.4" id="mask-2_2_">
							<g class="st0">
								<polygon id="path-1_2_" class="st1" points="-0.5,-2 24.4,-2 24.4,41.4 -0.5,41.4 								"/>
							</g>
						</mask>
						<path id="Fill-1" class="st2" d="M23.2,16.9L6.6-0.7C5.9-1.5,4.8-2,3.7-2C2.6-2,1.6-1.6,0.8-0.9C0-0.1-0.4,0.9-0.5,2
							c0,1.1,0.4,2.1,1.1,2.9l14,14.8l-14,14.8c-1.6,1.6-1.5,4.2,0.2,5.8c0.8,0.7,1.8,1.1,2.8,1.1c1.1,0,2.2-0.5,3-1.3l16.6-17.6
							C24.7,21,24.7,18.5,23.2,16.9"/>
					</g>
					<g id="Group-6" transform="translate(0.000000, 8.291464)">
						<g id="Clip-5">
						</g>
						<defs>
							<filter id="Adobe_OpacityMaskFilter_1_" filterUnits="userSpaceOnUse" x="-0.5" y="-2" width="24.8" height="43.4">
								<feColorMatrix  type="matrix" values="1 0 0 0 0  0 1 0 0 0  0 0 1 0 0  0 0 0 1 0"/>
							</filter>
						</defs>
						<mask maskUnits="userSpaceOnUse" x="-0.5" y="-2" width="24.8" height="43.4" id="mask-4_2_">
							<g class="st3">
								<polygon id="path-3_2_" class="st1" points="-0.5,-2 24.3,-2 24.3,41.4 -0.5,41.4 								"/>
							</g>
						</mask>
						<path id="Fill-4" class="st4" d="M9.2,19.7l14-14.8C24,4.1,24.4,3.1,24.3,2c0-1.1-0.5-2.1-1.3-2.9C22.2-1.6,21.2-2,20.1-2
							C19-2,18-1.5,17.2-0.7L0.6,16.9c-1.5,1.6-1.5,4.1,0,5.6l16.6,17.6c0.8,0.8,1.9,1.3,3,1.3c1.1,0,2.1-0.4,2.8-1.1
							c0.8-0.8,1.3-1.8,1.3-2.9c0-1.1-0.4-2.1-1.1-2.9L9.2,19.7z"/>
					</g>
					<g id="Group-9" transform="translate(29.210625, 0.005758)">
						<g id="Clip-8">
						</g>
						<defs>
							<filter id="Adobe_OpacityMaskFilter_2_" filterUnits="userSpaceOnUse" x="-0.4" y="-2" width="16.1" height="60">
								<feColorMatrix  type="matrix" values="1 0 0 0 0  0 1 0 0 0  0 0 1 0 0  0 0 0 1 0"/>
							</filter>
						</defs>
						<mask maskUnits="userSpaceOnUse" x="-0.4" y="-2" width="16.1" height="60" id="mask-6_2_">
							<g class="st5">
								<polygon id="path-5_2_" class="st1" points="-0.4,-2 15.7,-2 15.7,58 -0.4,58 								"/>
							</g>
						</mask>
						<path id="Fill-7" class="st6" d="M12.2-1.9L12.2-1.9C10-2.3,7.9-0.7,7.5,1.5l-7.9,51.8c-0.2,1.1,0.1,2.2,0.7,3
							C1,57.2,2,57.8,3.1,58c0.2,0,0.4,0,0.6,0c2,0,3.7-1.5,4.1-3.5l7.9-51.8c0.2-1.1-0.1-2.2-0.7-3C14.3-1.2,13.3-1.8,12.2-1.9"/>
					</g>
				</g>
			</g>
		</g>
	</g>
</g>
</svg>
