<svg id="email-icon" width="18px" height="15px" viewBox="0 0 18 15" version="1.1" xmlns="http://www.w3.org/2000/svg" xmlns:xlink="http://www.w3.org/1999/xlink">
    <title>Email</title>
    <defs>
        <path d="M16.3927102,-1.33226763e-15 L1.60724465,-1.33226763e-15 C1.09143442,-1.33226763e-15 0.694890942,0.174180349 0.417039632,0.522212714 C0.139024155,0.870368204 0.000221624378,1.30577803 0.000221624378,1.82799075 C0.000221624378,2.24977478 0.184375071,2.70681351 0.55259988,3.19923006 C0.920824689,3.69140036 1.31260735,4.07801178 1.72782474,4.3592285 C1.95544119,4.52007035 2.64182011,4.99726048 3.78700255,5.79063473 C4.4052525,6.21902645 4.94289684,6.59246354 5.40486055,6.91468077 C5.79865425,7.18904355 6.13827309,7.42667414 6.41866898,7.6238788 C6.45084556,7.64645165 6.50144979,7.6826503 6.56863481,7.73066892 C6.64103211,7.78266856 6.73263686,7.84862234 6.84566529,7.93025399 C7.06326761,8.08764834 7.24405564,8.21487715 7.38802941,8.31202251 C7.53183901,8.40924995 7.7060604,8.51784589 7.91040629,8.63842597 C8.1146701,8.75888293 8.30723706,8.84946164 8.4880251,8.90966959 C8.66889522,8.96987755 8.83626267,9.00008414 8.99025058,9.00008414 L9.00026472,9.00008414 L9.01023782,9.00008414 C9.16418468,9.00008414 9.33159317,8.96987755 9.51242225,8.90966959 C9.69321029,8.84946164 9.88565413,8.75908814 10.0900411,8.63842597 C10.2942228,8.51788693 10.4681979,8.40904474 10.612459,8.31202251 C10.7564328,8.21483611 10.9372208,8.08768938 11.1548641,7.93025399 C11.2676463,7.84862234 11.3592511,7.78262752 11.4316484,7.73083308 C11.4988744,7.68256822 11.5494787,7.64661582 11.5818194,7.6238788 C11.8002836,7.47186089 12.1406412,7.23521529 12.5983366,6.91743055 C13.4310697,6.33886779 14.6575144,5.48725557 16.2827188,4.3592285 C16.7715237,4.01780383 17.1798872,3.60582872 17.5080965,3.12383673 C17.8356901,2.64184474 17.9999384,2.13625385 17.9999384,1.60722824 C17.9999384,1.16525176 17.8406972,0.787012811 17.5228714,0.472018896 C17.2047173,0.157394354 16.8279559,-1.33226763e-15 16.3927102,-1.33226763e-15 M5.65443423,8.64424156 C5.78203242,8.73588735 5.90002688,8.82145899 6.00644763,8.89943794 C6.38825719,9.18065465 6.69783362,9.40002175 6.93566942,9.55729298 C7.17325897,9.7148515 7.48964829,9.8754471 7.8848374,10.0394491 C8.20102152,10.1708478 8.49992223,10.2494768 8.78172863,10.2756725 L8.98988121,10.2854932 L9.00986844,10.2854932 C9.35145728,10.2854932 9.71964105,10.2036564 10.1148712,10.0394491 C10.5098141,9.8754471 10.8262444,9.71481046 11.0640392,9.55729298 C11.301916,9.40002175 11.6116566,9.18061361 11.993302,8.89943794 L12.1659023,8.77501534 L12.1659023,8.77501534 L12.3462594,8.64563698 L17.4459596,13.7455013 C17.1904935,13.9715934 16.8964014,14.1020402 16.5628047,14.1346966 L16.3927102,14.1428656 L1.60720361,14.1428656 C1.26041422,14.1428656 0.953155381,14.0447177 0.684755115,13.850567 L0.553790085,13.7455013 L5.65443423,8.64424156 Z M18,4.56026234 L18,12.3194962 L13.506935,7.82622596 C14.4645575,7.15745386 15.6273878,6.36022171 16.995508,5.4342422 C17.3771534,5.17301272 17.7118883,4.88186394 18,4.56026234 Z M0,4.56026234 C0.294637306,4.88847163 0.633024906,5.17982561 1.01462926,5.4342422 C2.43700635,6.40085284 3.59565042,7.19664855 4.49482979,7.82442013 L4.49482979,7.82442013 L0,12.319291 Z" id="path-1"></path>
    </defs>
    <g stroke="none" stroke-width="1" fill="none" fill-rule="evenodd">
        <g transform="translate(-140.000000, -310.000000)">
            <g transform="translate(140.000000, 72.000000)">
                <g id="email-address" transform="translate(0.000000, 236.000000)">
                    <g>
                        <g transform="translate(0.000000, 2.250000)">
                            <mask id="mask-2" fill="white">
                                <use xlink:href="#path-1"></use>
                            </mask>
                            <use fill="#FFFFFF" xlink:href="#path-1"></use>
                            <g mask="url(#mask-2)" fill="#FFFFFF">
                                <g transform="translate(0.000000, -2.250000)" >
                                    <rect x="0" y="0" width="18" height="18"></rect>
                                </g>
                            </g>
                        </g>
                    </g>
                </g>
            </g>
        </g>
    </g>
</svg>