<svg width="143px" height="28px" viewBox="0 0 143 28" version="1.1" xmlns="http://www.w3.org/2000/svg" xmlns:xlink="http://www.w3.org/1999/xlink">
  <title>Bixal Logo</title>
    <defs>
      <path d="M63.689203,11.234356 L55.2907656,0 L50.4705882,0 L61.278987,14.4592189 L51.1592214,28 L55.9793987,28 L63.689203,17.6839132 L66.0991643,14.4592189 L76.907563,0 L72.0873857,0 L63.689203,11.234356 Z M94.3319328,17.8723404 L99.4377765,5.36170213 L104.546218,17.8723404 L94.3319328,17.8723404 Z M97.4015859,0 L85.9201681,28 L90.1038329,28 L92.7427522,21.5716553 L106.132676,21.5716553 L108.771339,28 L112.957983,28 L101.47665,0 L97.4015859,0 Z M68.6863269,18.2150782 C67.6436673,19.5655854 67.6300992,21.4072695 68.6528415,22.7717889 L72.5710777,28 L77.5084034,28 L69.410744,17.2765957 L68.6863269,18.2150782 Z M127.703044,24.1573571 L127.703044,0 L123.773109,0 L123.773109,28 L143,28 L143,24.1573571 L127.703044,24.1573571 Z M35.4495798,28 L39.0525663,28 L39.0546218,0 L35.4495798,0 L35.4495798,28 Z M16.8771171,10.6363893 C16.1449852,11.4061394 15.1654042,11.8591245 14.1122047,11.9148936 C13.6670327,11.9122461 10.4229251,11.9098548 4.20588235,11.9098548 L4.20588235,3.57446809 L13.9014804,3.57446809 C16.1739429,3.57446809 18.0252101,5.44456882 18.0252101,7.74604732 C18.0252101,8.83034193 17.617185,9.85570748 16.8771171,10.6363893 L16.8771171,10.6363893 Z M13.9014804,24.4255319 L4.20588235,24.4255319 L4.20588235,16.0904015 L6.3229188,16.0904015 C9.74879303,16.0877539 13.6250736,16.0877539 14.1122047,16.0851064 C15.1654042,16.1384841 16.1449852,16.593946 16.8771171,17.3638669 C17.617185,18.1442925 18.0252101,19.1697435 18.0252101,20.2539527 C18.0252101,22.5554312 16.1739429,24.4255319 13.9014804,24.4255319 L13.9014804,24.4255319 Z M20.9976253,11.0638144 C21.4157836,10.0801956 21.6302521,9.03612296 21.6302521,7.96304594 C21.6302521,6.89013755 21.4157836,5.84867866 20.9976253,4.8624461 C20.5925371,3.91322782 20.0155006,3.06366987 19.2821322,2.33249018 C18.5461328,1.60156344 17.6885984,1.02813712 16.7327837,0.628484016 C15.742766,0.212895377 14.6946119,0 13.6144615,0 L0,0 L0,28 L13.6144615,28 C14.6946119,28 15.742766,27.786936 16.7327837,27.371516 C17.6885984,26.9716942 18.5435018,26.3984366 19.2821322,25.6672569 C20.0155006,24.9362458 20.5951681,24.0842427 20.9976253,23.137301 C21.4157836,22.1539351 21.6276211,21.1098624 21.6276211,20.0367011 C21.6276211,18.961179 21.4157836,17.9198044 20.9976253,16.9361856 C20.5951681,15.9892438 20.017877,15.1374094 19.2821322,14.4062297 C19.1392098,14.2641589 18.9936564,14.130098 18.8399554,13.9987353 C18.9936564,13.869902 19.1392098,13.7329744 19.2821322,13.5936017 C20.0155006,12.8625906 20.5951681,12.0105032 20.9976253,11.0638144 L20.9976253,11.0638144 Z" id="path-1"></path>
    </defs>
  <g id="desktop" stroke="none" stroke-width="1" fill="none" fill-rule="evenodd">
    <g id="404-Page" transform="translate(-768.000000, -38.000000)">
      <g id="logo" transform="translate(768.000000, 38.000000)">
        <mask id="mask-2" fill="white">
          <use xlink:href="#path-1"></use>
        </mask>
        <use fill="#000000" xlink:href="#path-1"></use>
        <g id="color" mask="url(#mask-2)" fill="#FFFFFF">
          <rect id="swatch" x="0" y="0" width="143" height="28"></rect>
        </g>
      </g>
    </g>
  </g>
</svg>