<?xml version="1.0" encoding="utf-8"?>
<!-- Generator: Adobe Illustrator 24.0.3, SVG Export Plug-In . SVG Version: 6.00 Build 0)  -->
<svg version="1.1" id="menu-icon" xmlns="http://www.w3.org/2000/svg" xmlns:xlink="http://www.w3.org/1999/xlink" x="0px" y="0px"
	 viewBox="0 0 22 18.05" style="enable-background:new 0 0 22 18.05;" xml:space="preserve"
	 width="23px" height="25px">
<style type="text/css">
	.st0{enable-background:new    ;}
	.st1{fill:#000;}
	.st2{fill-rule:evenodd;clip-rule:evenodd;fill:#000;}
</style>
<g id="">
	<g class="st0">
		<path class="st1" d="M6.33,18H5.32v-3.78L3.97,18H3.01l-1.34-3.78V18H0.82v-4.86h1.5l1.27,3.69l1.27-3.69h1.48V18z"/>
		<path class="st1" d="M10.91,18H7.71v-4.86h3.11v0.8H8.74v1.18h1.62v0.81H8.74v1.28h2.17V18z"/>
		<path class="st1" d="M15.95,18h-0.9l-2.09-3.26V18h-0.9v-4.86h1.01l1.97,3.1v-3.1h0.91V18z"/>
		<path class="st1" d="M21.18,16.17c0,1.24-0.71,1.88-1.93,1.88c-1.21,0-1.95-0.59-1.95-1.84v-3.07h1.04v3.05
			c0,0.69,0.3,1.11,0.97,1.11s0.96-0.41,0.96-1.09v-3.07h0.92V16.17z"/>
	</g>
	<path id="" class="st2" d="M1.5,6h19C21.33,6,22,6.67,22,7.5l0,0C22,8.33,21.33,9,20.5,9h-19C0.67,9,0,8.33,0,7.5l0,0
		C0,6.67,0.67,6,1.5,6z"/>
	<path id="" class="st2" d="M1.5,0h19C21.33,0,22,0.67,22,1.5l0,0C22,2.33,21.33,3,20.5,3h-19C0.67,3,0,2.33,0,1.5l0,0
		C0,0.67,0.67,0,1.5,0z"/>
</g>
</svg>
