<?xml version="1.0" encoding="UTF-8" standalone="no"?>
<svg
   xmlns:dc="http://purl.org/dc/elements/1.1/"
   xmlns:cc="http://creativecommons.org/ns#"
   xmlns:rdf="http://www.w3.org/1999/02/22-rdf-syntax-ns#"
   xmlns:svg="http://www.w3.org/2000/svg"
   xmlns="http://www.w3.org/2000/svg"
   xmlns:sodipodi="http://sodipodi.sourceforge.net/DTD/sodipodi-0.dtd"
   xmlns:inkscape="http://www.inkscape.org/namespaces/inkscape"
   version="1.1"
   id="iso"
   xml:space="preserve"
   width="54"
   viewBox="0 0 494.42667 533.12"
   sodipodi:docname="ISO 9001_2015.eps"><metadata
     id="metadata8"><rdf:RDF><cc:Work
         rdf:about=""><dc:format>image/svg+xml</dc:format><dc:type
           rdf:resource="http://purl.org/dc/dcmitype/StillImage" /></cc:Work></rdf:RDF></metadata><defs
     id="defs6" /><sodipodi:namedview
     pagecolor="#ffffff"
     bordercolor="#ffffff"
     borderopacity="1"
     objecttolerance="10"
     gridtolerance="10"
     guidetolerance="10"
     inkscape:pageopacity="0"
     inkscape:pageshadow="2"
     inkscape:window-width="640"
     inkscape:window-height="480"
     id="namedview4" /><g
     id="g10"
     inkscape:groupmode="layer"
     inkscape:label="ink_ext_XXXXXX"
     transform="matrix(1.3333333,0,0,-1.3333333,0,533.12)"><g
       id="g12"
       transform="scale(0.1)"><path
         d="m 69.625,512.238 c 25.4727,0 46.117,20.66 46.117,46.133 0,25.481 -20.6443,46.109 -46.117,46.109 -25.4687,0 -46.0977,-20.628 -46.0977,-46.109 0,-25.473 20.629,-46.133 46.0977,-46.133"
         style="fill:#ffffff;fill-opacity:1;fill-rule:nonzero;stroke:none"
         id="path14" /><path
         d="m 1616.69,454.129 -0.04,-0.078 v 0.09 c -68.82,0 -133.58,-30.871 -177.65,-84.7 -34.01,-41.5 -52.66,-93.55 -52.53,-146.531 V 46.7188 c 0,-27.25 19.21,-46.296925 46.72,-46.296925 27.83,0 46.53,18.609425 46.53,46.296925 V 224.871 c 0.24,31.348 11.19,61.859 30.91,85.899 26.09,31.859 64.81,50.152 106.22,50.152 v 0.027 h 1.35 c 11.16,0 22.04,3.86 30.57,10.84 9.49,7.793 15.54,18.481 17.05,30.07 1.58,12.352 -2.09,24.371 -10.6,34.762 -11.86,14.481 -27.49,17.508 -38.53,17.508"
         style="fill:#ffffff;fill-opacity:1;fill-rule:nonzero;stroke:none"
         id="path16" /><path
         d="M 372.668,464.27 C 255.074,464.27 172.93,385.75 172.93,273.352 V 121.23 l 0.058,-1.25 c -0.648,-15.339 -13.215,-27.3706 -28.57,-27.3706 -15.063,0 -27.422,11.6716 -28.543,26.4106 h -0.129 v 303.359 c 0,27.269 -19.0351,46.301 -46.289,46.301 -27.25,0 -46.289,-19.032 -46.289,-46.301 V 121.23 c 0,-66.8003 54.2539,-121.128437 120.953,-121.128437 64.281,0 117.406,50.230437 120.957,114.500437 0.258,2.168 0.442,4.359 0.442,6.628 v 146.739 c 0,64.082 43.058,107.14 107.148,107.14 64.094,0 107.141,-43.058 107.141,-107.14 V 46.7188 c 0,-27.2579 19.046,-46.296925 46.304,-46.296925 27.25,0 46.289,19.039025 46.289,46.296925 V 273.352 c 0,112.398 -82.125,190.918 -199.734,190.918"
         style="fill:#ffffff;fill-opacity:1;fill-rule:nonzero;stroke:none"
         id="path18" /><path
         d="m 854.492,92.6016 c -29.347,0.1992 -60.023,12.1994 -86.363,33.7774 -32.172,26.351 -50.688,65.43 -50.391,107.211 v 127.582 h 93.254 c 24.867,0 44.914,20.027 44.914,44.887 0,24.871 -20.176,45.011 -45.039,45.011 l -93.129,-0.031 v 107.152 c 0,27.258 -19.332,46.297 -46.582,46.297 -27.254,0 -46.347,-19.039 -46.347,-46.297 V 233.582 C 624.871,164.172 655.27,99.1406 709.457,54.75 752.016,19.9102 799.938,2.21875 851.895,2.21875 h 0.543 c 27.253,0 46.292,19.22265 46.292,46.73045 0,26.0821 -17.621,43.5899 -44.238,43.6524"
         style="fill:#ffffff;fill-opacity:1;fill-rule:nonzero;stroke:none"
         id="path20" /><path
         d="m 2841.62,85.3008 -178.21,178.1792 135.6,116.168 c 9.64,8.774 16.07,23.352 16.07,36.313 0,27.269 -19.03,46.309 -46.29,46.309 -13.29,0 -27.88,-6.051 -39,-16.18 L 2562.1,302.43 v 255.871 c 0,27.258 -19.02,46.301 -46.27,46.301 -27.27,0 -46.3,-19.043 -46.3,-46.301 V 46.3008 c 0,-27.25 19.03,-46.2890812 46.3,-46.2890812 27.25,0 46.27,19.0390812 46.27,46.2890812 V 171.691 c 0.06,6.489 2.76,12.93 7.99,17.579 9.81,8.71 24.42,7.48 33.7,-2.008 l 171.4,-171.1917 c 8.76,-9.64061 23.32,-16.0585812 36.31,-16.0585812 27.26,0 46.32,19.0195812 46.32,46.2695812 0,13.3007 -6.06,27.8906 -16.2,39.0195"
         style="fill:#ffffff;fill-opacity:1;fill-rule:nonzero;stroke:none"
         id="path22" /><path
         d="m 1925.24,92.6016 c -29.34,0.1992 -60.03,12.1994 -86.37,33.7774 -32.17,26.351 -50.68,65.43 -50.39,107.211 v 127.582 h 93.13 c 24.93,0 43.02,18.91 43.02,44.937 0,26.039 -18.09,44.93 -43.02,44.93 h -93.13 v 107.152 c 0,27.258 -19.31,46.297 -46.57,46.297 -27.26,0 -46.36,-19.039 -46.36,-46.297 V 233.582 c 0.07,-69.41 30.47,-134.4414 84.66,-178.832 42.56,-34.8398 90.48,-52.53125 142.43,-52.53125 h 0.55 c 27.25,0 46.3,19.22265 46.3,46.73045 0,26.0821 -17.63,43.5899 -44.25,43.6524"
         style="fill:#ffffff;fill-opacity:1;fill-rule:nonzero;stroke:none"
         id="path24" /><path
         d="m 2337.58,409.711 c -42,34.391 -92.36,52.559 -145.62,52.559 -68.78,0 -133.53,-30.872 -177.64,-84.731 -81.61,-99.648 -67.48,-241.641 32.16,-323.2695 41.58,-34.0586 93.83,-52.80856 147.09,-52.80856 11.43,0 22.91,0.84765 34.19,2.55078 8.53,1.30859 20.69,5.26953 30.1,16.76958 15.9,19.4101 12.93,49.25 -6.49,65.1406 -7.28,5.957 -16.34,8.9687 -26.92,8.9687 -2.86,0 -5.84,-0.2109 -8.82,-0.6406 -6.69,-1.1484 -13.59,-1.5898 -20.54,-1.5898 -81.18,0 -142.6,62.4688 -142.6,139.3988 0,76.91 62.35,139.261 139.26,139.261 62.65,0 115.63,-41.39 133.14,-98.3 l -133.36,-0.008 c -22.91,0 -41.48,-18.571 -41.48,-41.481 0,-22.902 17.91,-41.422 40.81,-41.422 h 177.41 c 19.21,0 34.95,8.161 43.8,18.961 7.45,9.121 11.1,20.461 10.51,32.809 -3.25,65.062 -34.23,126.23 -85,167.832"
         style="fill:#ffffff;fill-opacity:1;fill-rule:nonzero;stroke:none"
         id="path26" /><path
         d="m 1268.14,409.711 c -42,34.391 -92.36,52.559 -145.63,52.559 -68.78,0 -133.522,-30.872 -177.631,-84.731 C 863.262,277.891 877.398,135.898 977.043,54.2695 1018.62,20.2109 1070.87,1.46094 1124.13,1.46094 c 11.42,0 22.91,0.84765 34.19,2.55078 8.54,1.30859 20.69,5.26953 30.1,16.76958 15.9,19.4101 12.93,49.25 -6.49,65.1406 -7.28,5.957 -16.33,8.9687 -26.93,8.9687 -2.86,0 -5.84,-0.2109 -8.81,-0.6406 -6.69,-1.1484 -13.59,-1.5898 -20.54,-1.5898 -81.18,0 -142.607,62.4688 -142.607,139.3988 0,76.91 62.357,139.261 139.267,139.261 62.64,0 115.63,-41.39 133.13,-98.3 l -133.36,-0.008 c -22.9,0 -41.47,-18.571 -41.47,-41.481 0,-22.902 17.91,-41.422 40.82,-41.422 h 177.39 c 19.21,0 34.96,8.161 43.81,18.961 7.45,9.121 11.1,20.461 10.51,32.809 -3.25,65.062 -34.22,126.23 -85,167.832"
         style="fill:#ffffff;fill-opacity:1;fill-rule:nonzero;stroke:none"
         id="path28" /><path
         d="M 40,875.738 H 2830.69"
         style="fill:#ffffff;fill-opacity:1;fill-rule:nonzero;stroke:none"
         id="path30" /><path
         d="M 2830.69,835.738 H 40 c -22.0898,0 -40,17.91 -40,40 0,22.094 17.9102,40 40,40 h 2790.69 c 22.09,0 40,-17.906 40,-40 0,-22.09 -17.91,-40 -40,-40"
         style="fill:#ffffff;fill-opacity:1;fill-rule:nonzero;stroke:none"
         id="path32" /><g
         id="g34"
         transform="scale(10)"><text
           transform="matrix(0.81516876,0.59080616,0.57922353,-0.79918798,68.5715,352.244)"
           style="font-variant:normal;font-weight:500;font-size:24.9859px;font-family:NeoSansPro;-inkscape-font-specification:NeoSansPro-Medium;writing-mode:lr-tb;fill:#ffffff;fill-opacity:1;fill-rule:nonzero;stroke:#ffffff;stroke-width:1;stroke-linecap:butt;stroke-linejoin:miter;stroke-miterlimit:10;stroke-dasharray:none;stroke-opacity:1"
           id="text38"><tspan
             x="0"
             y="0"
             id="tspan36">I</tspan></text></g><g
         id="g40"
         transform="scale(10)"><text
           transform="matrix(0.85796704,0.52397968,0.51370473,-0.84114571,73.532,356.062)"
           style="font-variant:normal;font-weight:500;font-size:25.0216px;font-family:NeoSansPro;-inkscape-font-specification:NeoSansPro-Medium;writing-mode:lr-tb;fill:#ffffff;fill-opacity:1;fill-rule:nonzero;stroke:#ffffff;stroke-width:1;stroke-linecap:butt;stroke-linejoin:miter;stroke-miterlimit:10;stroke-dasharray:none;stroke-opacity:1"
           id="text44"><tspan
             x="0"
             y="0"
             id="tspan42">S</tspan></text></g><g
         id="g46"
         transform="scale(10)"><text
           transform="matrix(0.91097938,0.42070068,0.4124519,-0.89311636,84.4664,362.931)"
           style="font-variant:normal;font-weight:500;font-size:25.0687px;font-family:NeoSansPro;-inkscape-font-specification:NeoSansPro-Medium;writing-mode:lr-tb;fill:#ffffff;fill-opacity:1;fill-rule:nonzero;stroke:#ffffff;stroke-width:1;stroke-linecap:butt;stroke-linejoin:miter;stroke-miterlimit:10;stroke-dasharray:none;stroke-opacity:1"
           id="text50"><tspan
             x="0"
             y="0"
             id="tspan48">O</tspan></text></g><g
         id="g52"
         transform="scale(10)"><text
           transform="matrix(0.96646357,0.26193904,0.25680377,-0.94751578,103.945,371.483)"
           style="font-variant:normal;font-weight:500;font-size:25.1211px;font-family:NeoSansPro;-inkscape-font-specification:NeoSansPro-Medium;writing-mode:lr-tb;fill:#ffffff;fill-opacity:1;fill-rule:nonzero;stroke:#ffffff;stroke-width:1;stroke-linecap:butt;stroke-linejoin:miter;stroke-miterlimit:10;stroke-dasharray:none;stroke-opacity:1"
           id="text56"><tspan
             x="0"
             y="0"
             id="tspan54">9</tspan></text></g><g
         id="g58"
         transform="scale(10)"><text
           transform="matrix(0.98947324,0.14760936,0.14471597,-0.97007767,117.789,375.324)"
           style="font-variant:normal;font-weight:500;font-size:25.1438px;font-family:NeoSansPro;-inkscape-font-specification:NeoSansPro-Medium;writing-mode:lr-tb;fill:#ffffff;fill-opacity:1;fill-rule:nonzero;stroke:#ffffff;stroke-width:1;stroke-linecap:butt;stroke-linejoin:miter;stroke-miterlimit:10;stroke-dasharray:none;stroke-opacity:1"
           id="text62"><tspan
             x="0"
             y="0"
             id="tspan60">0</tspan></text></g><g
         id="g64"
         transform="scale(10)"><text
           transform="matrix(0.9994939,0.03244713,0.03181094,-0.97989835,132.036,377.53)"
           style="font-variant:normal;font-weight:500;font-size:25.154px;font-family:NeoSansPro;-inkscape-font-specification:NeoSansPro-Medium;writing-mode:lr-tb;fill:#ffffff;fill-opacity:1;fill-rule:nonzero;stroke:#ffffff;stroke-width:1;stroke-linecap:butt;stroke-linejoin:miter;stroke-miterlimit:10;stroke-dasharray:none;stroke-opacity:1"
           id="text68"><tspan
             x="0"
             y="0"
             id="tspan66">0</tspan></text></g><g
         id="g70"
         transform="scale(10)"><text
           transform="matrix(0.99676872,-0.08193179,-0.0803251,-0.97722594,146.438,378.082)"
           style="font-variant:normal;font-weight:500;font-size:25.1513px;font-family:NeoSansPro;-inkscape-font-specification:NeoSansPro-Medium;writing-mode:lr-tb;fill:#ffffff;fill-opacity:1;fill-rule:nonzero;stroke:#ffffff;stroke-width:1;stroke-linecap:butt;stroke-linejoin:miter;stroke-miterlimit:10;stroke-dasharray:none;stroke-opacity:1"
           id="text74"><tspan
             x="0"
             y="0"
             id="tspan72">1</tspan></text></g><g
         id="g76"
         transform="scale(10)"><text
           transform="matrix(0.98711668,-0.16320177,-0.16000208,-0.96776062,161.183,376.721)"
           style="font-variant:normal;font-weight:500;font-size:25.1417px;font-family:NeoSansPro;-inkscape-font-specification:NeoSansPro-Medium;writing-mode:lr-tb;fill:#ffffff;fill-opacity:1;fill-rule:nonzero;stroke:#ffffff;stroke-width:1;stroke-linecap:butt;stroke-linejoin:miter;stroke-miterlimit:10;stroke-dasharray:none;stroke-opacity:1"
           id="text80"><tspan
             x="0"
             y="0"
             id="tspan78">:</tspan></text></g><g
         id="g82"
         transform="scale(10)"><text
           transform="matrix(0.97097248,-0.24397518,-0.23919123,-0.95193192,166.625,376.06)"
           style="font-variant:normal;font-weight:500;font-size:25.1257px;font-family:NeoSansPro;-inkscape-font-specification:NeoSansPro-Medium;writing-mode:lr-tb;fill:#ffffff;fill-opacity:1;fill-rule:nonzero;stroke:#ffffff;stroke-width:1;stroke-linecap:butt;stroke-linejoin:miter;stroke-miterlimit:10;stroke-dasharray:none;stroke-opacity:1"
           id="text86"><tspan
             x="0"
             y="0"
             id="tspan84">2</tspan></text></g><g
         id="g88"
         transform="scale(10)"><text
           transform="matrix(0.93706466,-0.35613868,-0.34915588,-0.91868824,180.596,372.638)"
           style="font-variant:normal;font-weight:500;font-size:25.093px;font-family:NeoSansPro;-inkscape-font-specification:NeoSansPro-Medium;writing-mode:lr-tb;fill:#ffffff;fill-opacity:1;fill-rule:nonzero;stroke:#ffffff;stroke-width:1;stroke-linecap:butt;stroke-linejoin:miter;stroke-miterlimit:10;stroke-dasharray:none;stroke-opacity:1"
           id="text92"><tspan
             x="0"
             y="0"
             id="tspan90">0</tspan></text></g><g
         id="g94"
         transform="scale(10)"><text
           transform="matrix(0.89064988,-0.46378438,-0.45468978,-0.87318525,194.09,367.599)"
           style="font-variant:normal;font-weight:500;font-size:25.0502px;font-family:NeoSansPro;-inkscape-font-specification:NeoSansPro-Medium;writing-mode:lr-tb;fill:#ffffff;fill-opacity:1;fill-rule:nonzero;stroke:#ffffff;stroke-width:1;stroke-linecap:butt;stroke-linejoin:miter;stroke-miterlimit:10;stroke-dasharray:none;stroke-opacity:1"
           id="text98"><tspan
             x="0"
             y="0"
             id="tspan96">1</tspan></text></g><g
         id="g100"
         transform="scale(10)"><text
           transform="matrix(0.83262881,-0.5649073,-0.55383144,-0.81630504,206.876,361.037)"
           style="font-variant:normal;font-weight:500;font-size:25.0003px;font-family:NeoSansPro;-inkscape-font-specification:NeoSansPro-Medium;writing-mode:lr-tb;fill:#ffffff;fill-opacity:1;fill-rule:nonzero;stroke:#ffffff;stroke-width:1;stroke-linecap:butt;stroke-linejoin:miter;stroke-miterlimit:10;stroke-dasharray:none;stroke-opacity:1"
           id="text104"><tspan
             x="0"
             y="0"
             id="tspan102">5</tspan></text></g><g
         id="g106"
         transform="scale(10)"><text
           transform="matrix(0.76821326,-0.65300475,-0.64019403,-0.7531577,47.4613,151.408)"
           style="font-variant:normal;font-weight:500;font-size:24.9487px;font-family:NeoSansStd;-inkscape-font-specification:NeoSansStd-Medium;writing-mode:lr-tb;fill:#ffffff;fill-opacity:1;fill-rule:nonzero;stroke:#ffffff;stroke-width:0.99999;stroke-linecap:butt;stroke-linejoin:miter;stroke-miterlimit:10;stroke-dasharray:none;stroke-opacity:1"
           id="text110"><tspan
             x="0"
             y="0"
             id="tspan108">C</tspan></text></g><g
         id="g112"
         transform="scale(10)"><text
           transform="matrix(0.84195434,-0.55034514,-0.53954878,-0.82545607,60.9902,140.176)"
           style="font-variant:normal;font-weight:500;font-size:25.0078px;font-family:NeoSansStd;-inkscape-font-specification:NeoSansStd-Medium;writing-mode:lr-tb;fill:#ffffff;fill-opacity:1;fill-rule:nonzero;stroke:#ffffff;stroke-width:0.99999;stroke-linecap:butt;stroke-linejoin:miter;stroke-miterlimit:10;stroke-dasharray:none;stroke-opacity:1"
           id="text116"><tspan
             x="0"
             y="0"
             id="tspan114">E</tspan></text></g><g
         id="g118"
         transform="scale(10)"><text
           transform="matrix(0.90658823,-0.43046327,-0.42201633,-0.88881768,76.2465,130.419)"
           style="font-variant:normal;font-weight:500;font-size:25.0644px;font-family:NeoSansStd;-inkscape-font-specification:NeoSansStd-Medium;writing-mode:lr-tb;fill:#ffffff;fill-opacity:1;fill-rule:nonzero;stroke:#ffffff;stroke-width:0.99999;stroke-linecap:butt;stroke-linejoin:miter;stroke-miterlimit:10;stroke-dasharray:none;stroke-opacity:1"
           id="text122"><tspan
             x="0"
             y="0"
             id="tspan120">R</tspan></text></g><g
         id="g124"
         transform="scale(10)"><text
           transform="matrix(0.95289263,-0.30937695,-0.30330781,-0.93421767,93.5422,122.46)"
           style="font-variant:normal;font-weight:500;font-size:25.1078px;font-family:NeoSansStd;-inkscape-font-specification:NeoSansStd-Medium;writing-mode:lr-tb;fill:#ffffff;fill-opacity:1;fill-rule:nonzero;stroke:#ffffff;stroke-width:0.99999;stroke-linecap:butt;stroke-linejoin:miter;stroke-miterlimit:10;stroke-dasharray:none;stroke-opacity:1"
           id="text128"><tspan
             x="0"
             y="0"
             id="tspan126">T</tspan></text></g><g
         id="g130"
         transform="scale(10)"><text
           transform="matrix(0.97781004,-0.21368549,-0.2094935,-0.95864778,110.239,117.378)"
           style="font-variant:normal;font-weight:500;font-size:25.1321px;font-family:NeoSansStd;-inkscape-font-specification:NeoSansStd-Medium;writing-mode:lr-tb;fill:#ffffff;fill-opacity:1;fill-rule:nonzero;stroke:#ffffff;stroke-width:0.99999;stroke-linecap:butt;stroke-linejoin:miter;stroke-miterlimit:10;stroke-dasharray:none;stroke-opacity:1"
           id="text134"><tspan
             x="0"
             y="0"
             id="tspan132">I</tspan></text></g><g
         id="g136"
         transform="scale(10)"><text
           transform="matrix(0.99340666,-0.11693858,-0.11464384,-0.97393373,120.153,115.176)"
           style="font-variant:normal;font-weight:500;font-size:25.1478px;font-family:NeoSansStd;-inkscape-font-specification:NeoSansStd-Medium;writing-mode:lr-tb;fill:#ffffff;fill-opacity:1;fill-rule:nonzero;stroke:#ffffff;stroke-width:0.99999;stroke-linecap:butt;stroke-linejoin:miter;stroke-miterlimit:10;stroke-dasharray:none;stroke-opacity:1"
           id="text140"><tspan
             x="0"
             y="0"
             id="tspan138">F</tspan></text></g><g
         id="g142"
         transform="scale(10)"><text
           transform="matrix(0.99980041,-0.02037807,-0.01997826,-0.98020402,137.413,113.461)"
           style="font-variant:normal;font-weight:500;font-size:25.1542px;font-family:NeoSansStd;-inkscape-font-specification:NeoSansStd-Medium;writing-mode:lr-tb;fill:#ffffff;fill-opacity:1;fill-rule:nonzero;stroke:#ffffff;stroke-width:0.99999;stroke-linecap:butt;stroke-linejoin:miter;stroke-miterlimit:10;stroke-dasharray:none;stroke-opacity:1"
           id="text146"><tspan
             x="0"
             y="0"
             id="tspan144">I</tspan></text></g><g
         id="g148"
         transform="scale(10)"><text
           transform="matrix(0.99735783,0.07409896,0.07264537,-0.97780857,147.476,113.223)"
           style="font-variant:normal;font-weight:500;font-size:25.1518px;font-family:NeoSansStd;-inkscape-font-specification:NeoSansStd-Medium;writing-mode:lr-tb;fill:#ffffff;fill-opacity:1;fill-rule:nonzero;stroke:#ffffff;stroke-width:0.99999;stroke-linecap:butt;stroke-linejoin:miter;stroke-miterlimit:10;stroke-dasharray:none;stroke-opacity:1"
           id="text152"><tspan
             x="0"
             y="0"
             id="tspan150">C</tspan></text></g><g
         id="g154"
         transform="scale(10)"><text
           transform="matrix(0.97935619,0.20618671,0.20214216,-0.96016273,165.154,114.705)"
           style="font-variant:normal;font-weight:500;font-size:25.1336px;font-family:NeoSansStd;-inkscape-font-specification:NeoSansStd-Medium;writing-mode:lr-tb;fill:#ffffff;fill-opacity:1;fill-rule:nonzero;stroke:#ffffff;stroke-width:0.99999;stroke-linecap:butt;stroke-linejoin:miter;stroke-miterlimit:10;stroke-dasharray:none;stroke-opacity:1"
           id="text158"><tspan
             x="0"
             y="0"
             id="tspan156">A</tspan></text></g><g
         id="g160"
         transform="scale(10)"><text
           transform="matrix(0.94865353,0.32264753,0.31631706,-0.93006294,182.419,118.479)"
           style="font-variant:normal;font-weight:500;font-size:25.1037px;font-family:NeoSansStd;-inkscape-font-specification:NeoSansStd-Medium;writing-mode:lr-tb;fill:#ffffff;fill-opacity:1;fill-rule:nonzero;stroke:#ffffff;stroke-width:0.99999;stroke-linecap:butt;stroke-linejoin:miter;stroke-miterlimit:10;stroke-dasharray:none;stroke-opacity:1"
           id="text164"><tspan
             x="0"
             y="0"
             id="tspan162">T</tspan></text></g><g
         id="g166"
         transform="scale(10)"><text
           transform="matrix(0.91337724,0.41526009,0.40711426,-0.89547629,198.856,124.411)"
           style="font-variant:normal;font-weight:500;font-size:25.0705px;font-family:NeoSansStd;-inkscape-font-specification:NeoSansStd-Medium;writing-mode:lr-tb;fill:#ffffff;fill-opacity:1;fill-rule:nonzero;stroke:#ffffff;stroke-width:0.99999;stroke-linecap:butt;stroke-linejoin:miter;stroke-miterlimit:10;stroke-dasharray:none;stroke-opacity:1"
           id="text170"><tspan
             x="0"
             y="0"
             id="tspan168">I</tspan></text></g><g
         id="g172"
         transform="scale(10)"><text
           transform="matrix(0.8644244,0.51282368,0.50276283,-0.84748354,208.33,128.61)"
           style="font-variant:normal;font-weight:500;font-size:25.0269px;font-family:NeoSansStd;-inkscape-font-specification:NeoSansStd-Medium;writing-mode:lr-tb;fill:#ffffff;fill-opacity:1;fill-rule:nonzero;stroke:#ffffff;stroke-width:0.99999;stroke-linecap:butt;stroke-linejoin:miter;stroke-miterlimit:10;stroke-dasharray:none;stroke-opacity:1"
           id="text176"><tspan
             x="0"
             y="0"
             id="tspan174">O</tspan></text></g><g
         id="g178"
         transform="scale(10)"><text
           transform="matrix(0.77904692,0.63951119,0.62696563,-0.76377703,226.297,139.584)"
           style="font-variant:normal;font-weight:500;font-size:24.957px;font-family:NeoSansStd;-inkscape-font-specification:NeoSansStd-Medium;writing-mode:lr-tb;fill:#ffffff;fill-opacity:1;fill-rule:nonzero;stroke:#ffffff;stroke-width:0.99999;stroke-linecap:butt;stroke-linejoin:miter;stroke-miterlimit:10;stroke-dasharray:none;stroke-opacity:1"
           id="text182"><tspan
             x="0"
             y="0"
             id="tspan180">N</tspan></text></g><path
         d="m 2436.56,1669.51 c 119.31,136.75 210.95,298.27 266.19,475.84 24.27,78.02 57.51,217.43 59.44,393.25 4.4,397.55 -184.5,682.93 -226.93,744.6 -53.53,80.77 -94.1,121.09 -144.47,177.48"
         style="fill:none;stroke:#ffffff;stroke-width:140;stroke-linecap:round;stroke-linejoin:round;stroke-miterlimit:4;stroke-dasharray:none;stroke-opacity:1"
         id="path184" /><path
         d="m 441.383,1669.51 c -119.32,136.75 -210.957,298.27 -266.188,475.84 -25.816,83 -60.59,221.5 -59.453,393.25 2.957,444.64 231.781,744.47 262.356,790.97 55.957,76.32 80.402,93.76 112.3,131.11"
         style="fill:none;stroke:#ffffff;stroke-width:140;stroke-linecap:round;stroke-linejoin:round;stroke-miterlimit:4;stroke-dasharray:none;stroke-opacity:1"
         id="path186" /><g
         id="g188"
         transform="scale(10)"><text
           transform="matrix(1,0,0,-1,285.782,112.178)"
           style="font-variant:normal;font-weight:normal;font-size:24.66px;font-family:NeoSansStd;-inkscape-font-specification:NeoSansStd-Regular;writing-mode:lr-tb;fill:#ffffff;fill-opacity:1;fill-rule:nonzero;stroke:none"
           id="text192"><tspan
             x="0 14.5494"
             y="0"
             sodipodi:role="line"
             id="tspan190">TM</tspan></text></g><path
         d="m 1902.34,2169.47 c 16.1,98.9 25.73,203.32 28.33,310.64 h 477.21 c -9.65,-158.52 -57.59,-310.74 -139.22,-444.91 -99.71,57.04 -225.06,102.62 -366.32,134.27 z m -217.12,-335.38 c -72.72,-166.5 -166.98,-263.09 -259.31,-266.26 -4.79,0.05 -9.58,0.08 -14.35,0.2 -90.74,6.4 -182.93,102.54 -254.35,266.06 -31.46,72.02 -57.43,153.41 -77.56,241.43 107.24,16.79 221.81,25.75 339.04,25.75 119.72,0 235.82,-9.09 343.99,-26.18 -20.12,-87.86 -46.05,-169.1 -77.46,-241 z m -1020.685,117.4 c 83.61,42.34 185.129,76.82 298.024,101.97 21.949,-97.14 50.521,-187.27 85.381,-267.1 29.59,-67.74 62.8,-126.01 98.88,-174.17 -193.875,60.97 -361.718,181.19 -482.285,339.3 z m 482.295,1515.78 c -36.09,-48.16 -69.3,-106.43 -98.89,-174.18 -34.76,-79.58 -63.26,-169.39 -85.186,-266.2 -112.688,25.27 -213.941,59.86 -297.285,102.3 120.504,157.52 287.976,277.27 481.361,338.08 z m 1053.8,-325.68 c -87.61,-48.39 -197.24,-87.33 -320.89,-115.02 -21.93,96.94 -50.47,186.86 -85.26,266.52 -32.18,73.66 -68.64,136.09 -108.41,186.53 206.25,-54.52 385.85,-175.26 514.56,-338.03 z m -789.07,369.83 c 4.77,0.13 9.56,0.15 14.35,0.21 92.33,-3.18 186.59,-99.78 259.31,-266.26 31.4,-71.9 57.33,-153.13 77.45,-240.97 -107.48,-16.85 -222.7,-25.81 -341.43,-25.81 -118.14,0 -233.52,9.08 -341.42,26.1 20.1,87.74 46.02,168.87 77.39,240.68 71.42,163.51 163.61,259.66 254.35,266.05 z m -380.52,-912.08 c 2.52,99.91 11.39,196.88 26.14,288.5 115.54,-18.57 238.57,-28.48 364.06,-28.48 126.06,0 248.93,9.79 364.05,28.21 14.71,-91.55 23.56,-188.42 26.09,-288.23 z m 0,-119.23 h 780.34 c -2.53,-99.8 -11.38,-196.67 -26.09,-288.2 -115.81,18.66 -239.55,28.59 -366.6,28.59 -124.57,0 -246.77,-9.78 -361.64,-28.12 -14.68,91.4 -23.49,188.11 -26.01,287.73 z m -119.282,0 c 2.594,-107.07 12.18,-211.26 28.207,-309.94 -129.774,-28.75 -246.621,-69.07 -342.152,-119.06 -74.446,127.5 -120.672,273.36 -130.141,429 z m -444.086,119.23 c 9.5,156.19 56.027,302.53 130.933,430.34 95.286,-50.13 211.903,-90.59 341.516,-119.47 C 924,2811.25 914.359,2706.75 911.758,2599.34 Z m 1462.998,0 c -2.6,107.28 -12.22,211.66 -28.3,310.51 141.23,31.45 266.69,76.78 366.61,133.54 79.69,-131.01 129.21,-282.26 139.04,-444.05 z m -492.82,1031.67 c -3.73,0 -7.43,-0.1 -11.15,-0.14 -1.83,0.04 -3.65,0.14 -5.49,0.14 -5.29,0 -10.55,-0.2 -15.8,-0.52 C 818.617,3613.27 346.563,3130.61 346.563,2539.73 c 0,-590.89 472.054,-1073.55 1058.847,-1090.78 5.25,-0.31 10.51,-0.52 15.8,-0.52 1.84,0 3.66,0.11 5.49,0.15 3.72,-0.04 7.42,-0.15 11.15,-0.15 182.84,0 363.75,46.13 523.18,133.37 28.88,15.8 39.48,52.04 23.67,80.92 -15.81,28.89 -52.06,39.47 -80.92,23.67 -68.7,-37.59 -141.91,-66.52 -217.63,-86.45 39.74,50.42 76.18,112.81 108.33,186.42 34.78,79.63 63.31,169.51 85.23,266.4 123.69,-27.89 233.21,-67.05 320.58,-115.71 -15.74,-19.88 -32.13,-39.37 -49.52,-58.13 -22.4,-24.14 -20.97,-61.86 3.17,-84.24 24.13,-22.4 61.85,-20.98 84.25,3.17 187.63,202.31 290.96,465.79 290.96,741.88 0,601.74 -489.56,1091.28 -1091.3,1091.28"
         style="fill:#ffffff;fill-opacity:1;fill-rule:nonzero;stroke:none"
         id="path194" /><path
         d="m 2071.19,1787.54 c -15.93,0 -30.9,-6.2 -42.16,-17.46 -11.26,-11.25 -17.47,-26.23 -17.47,-42.16 0,-15.94 6.21,-30.92 17.48,-42.19 11.25,-11.26 26.22,-17.46 42.16,-17.46 0,0 0,0 0.01,0 15.93,0 30.91,6.2 42.2,17.49 23.22,23.28 23.21,61.1 -0.01,84.28 -11.29,11.28 -26.28,17.5 -42.21,17.5"
         style="fill:#ffffff;fill-opacity:1;fill-rule:nonzero;stroke:none"
         id="path196" /></g></g></svg>
