<?xml version="1.0" encoding="UTF-8"?>
<svg width="74px" height="74px" viewBox="0 0 74 74" version="1.1" xmlns="http://www.w3.org/2000/svg" xmlns:xlink="http://www.w3.org/1999/xlink">
    <title>sba-support</title>
    <g id="desktop" stroke="none" stroke-width="1" fill="none" fill-rule="evenodd">
        <g id="bixal-casestudies-sba" transform="translate(-1277.000000, -7112.000000)" fill="#FFFFFF" fill-rule="nonzero">
            <g id="Delivering-the-Solution" transform="translate(140.000000, 6783.250000)">
                <g id="Support" transform="translate(964.500000, 290.500000)">
                    <g id="headset-solid" transform="translate(173.000000, 38.464844)">
                        <path d="M27.375,29.65625 C27.375,27.1368945 25.3318555,25.09375 22.8125,25.09375 L20.53125,25.09375 C15.4911133,25.09375 11.40625,29.1786133 11.40625,34.21875 L11.40625,41.0625 C11.40625,46.1026367 15.4911133,50.1875 20.53125,50.1875 L22.8125,50.1875 C25.3318555,50.1875 27.375,48.1443555 27.375,45.625 L27.375,29.65625 Z M52.46875,50.1875 C57.5088867,50.1875 61.59375,46.1026367 61.59375,41.0625 L61.59375,34.21875 C61.59375,29.1786133 57.5088867,25.09375 52.46875,25.09375 L50.1875,25.09375 C47.6681445,25.09375 45.625,27.1368945 45.625,29.65625 L45.625,45.625 C45.625,48.1443555 47.6681445,50.1875 50.1875,50.1875 L52.46875,50.1875 Z M36.5,0 C16.1369922,0 0.653007813,16.9425586 0,36.5 L0,38.78125 C0,40.0416406 1.02085938,41.0625 2.28125,41.0625 L4.5625,41.0625 C5.82289063,41.0625 6.84375,40.0416406 6.84375,38.78125 L6.84375,36.5 C6.84375,20.1477148 20.1477148,6.84375 36.5,6.84375 C52.8522852,6.84375 66.15625,20.1477148 66.15625,36.5 L66.1391406,36.5 C66.1505469,36.8464648 66.15625,60.1280469 66.15625,60.1280469 C66.15625,63.4572461 63.4572461,66.15625 60.1280469,66.15625 L45.625,66.15625 C45.625,62.3765039 42.5609961,59.3125 38.78125,59.3125 L34.21875,59.3125 C30.4390039,59.3125 27.375,62.3765039 27.375,66.15625 C27.375,69.9359961 30.4390039,73 34.21875,73 L60.1280469,73 C67.2369922,73 73,67.2369922 73,60.1280469 L73,36.5 C72.3469922,16.9425586 56.8630078,0 36.5,0 Z" id="sba-support"></path>
                    </g>
                </g>
            </g>
        </g>
    </g>
</svg>